<svg xmlns="http://www.w3.org/2000/svg" version="1.1" xmlns:xlink="http://www.w3.org/1999/xlink" xmlns:svgjs="http://svgjs.dev/svgjs" viewBox="0 0 800 800"><g stroke-width="1.5" stroke="hsl(0, 0%, 0%)" fill="none" stroke-linecap="round"><path d="M387.72 16.1C393.99 15.6 400.14 15.41 406.18 15.53 412.21 15.8 418.13 16.38 423.93 17.25 432.54 18.93 449.15 23.85 457.12 27.03 464.97 30.58 480.04 38.76 487.28 43.29 494.43 47.98 508.26 57.85 514.98 62.96 521.69 68.02 534.97 78.2 541.61 83.28 548.39 88.2 562.26 97.91 569.44 102.7 574.41 105.77 579.48 108.87 584.66 111.98 590.02 114.99 595.52 118.02 601.17 121.09 607.02 124.07 613.03 127.1 619.2 130.18 625.58 133.2 632.13 136.28 638.85 139.43 645.75 142.54 652.81 145.73 660 149.02 667.35 152.28 674.8 155.65 682.33 159.13 689.95 162.59 697.6 166.18 705.23 169.89 712.87 173.6 720.42 177.45 727.85 181.42 735.17 185.41 742.28 189.53 749.13 193.79 755.74 198.07 762 202.48 767.86 207.02 773.36 211.6 778.37 216.3 782.85 221.12 788.58 228.46 796.13 243.77 797.81 251.72 798.01 259.81 794.29 276.47 790.5 285.03 787.41 290.77 783.82 296.59 779.78 302.47 775.55 308.37 771.01 314.32 766.22 320.32 761.46 326.33 756.62 332.39 751.77 338.48 747.19 344.58 742.77 350.72 738.57 356.89 734.86 363.05 731.51 369.25 728.59 375.46 726.32 381.68 724.59 387.85 723.4 393.96 722.91 400.07 722.97 406.13 723.55 412.13 724.79 418.14 726.48 424.09 728.59 429.99 731.23 435.9 734.18 441.76 737.36 447.58 740.89 453.41 744.53 459.2 748.2 464.96 752.02 470.74 755.72 476.49 759.25 482.23 762.73 487.99 765.9 493.75 768.7 499.5 771.28 505.3 773.4 511.11 775.02 516.93 776.29 522.82 776.99 528.72 777.11 534.66 776.8 540.68 775.89 546.73 774.38 552.84 772.42 559.03 769.86 565.28 766.74 571.59 763.19 577.99 759.11 584.45 754.54 590.98 749.6 597.6 744.22 604.29 738.44 611.03 732.38 617.85 725.99 624.72 719.31 631.63 712.44 638.6 705.35 645.58 698.09 652.57 690.72 659.57 683.23 666.55 675.67 673.48 668.08 680.37 660.46 687.18 652.84 693.86 645.25 700.45 637.71 706.87 630.22 713.09 622.8 719.15 615.47 724.96 608.23 730.47 601.1 735.76 594.06 740.7 587.14 745.28 580.33 749.56 573.63 753.42 567.03 756.84 560.56 759.92 554.18 762.53 547.89 764.66 541.71 766.43 535.61 767.7 529.58 768.48 523.65 768.93 517.77 768.9 511.94 768.4 506.18 767.63 500.46 766.45 494.76 764.89 489.11 763.15 483.48 761.1 477.84 758.79 472.25 756.45 466.64 753.94 461.01 751.31 455.41 748.81 449.78 746.3 444.11 743.83 438.46 741.65 432.76 739.62 427.02 737.79 421.29 736.37 415.5 735.24 409.67 734.43 403.83 734.13 397.94 734.2 392 734.66 386.05 735.65 380.05 737.04 374 738.8 367.95 741.06 361.92 743.61 355.92 746.42 349.91 749.59 343.94 752.91 338 756.32 332.07 759.93 326.17 763.51 320.32 766.99 314.48 770.49 308.69 773.78 302.96 776.79 297.24 779.66 291.58 782.15 285.99 784.22 277.66 786.66 261.44 788.41 253.55 787.61 245.8 785.63 230.79 778.27 223.56 772.99 218.8 768.94 214.13 764.44 209.58 759.53 205.04 754.34 200.6 748.8 196.28 742.95 191.96 736.91 187.74 730.63 183.62 724.16 179.5 717.59 175.48 710.89 171.56 704.1 167.62 697.29 163.77 690.45 160 683.6 156.21 676.81 152.5 670.05 148.86 663.35 145.18 656.76 141.57 650.25 138.03 643.84 134.43 637.57 130.89 631.4 127.41 625.35 123.87 619.46 120.38 613.67 116.94 608 113.43 602.48 109.98 597.06 106.58 591.73 103.1 586.55 99.69 581.45 96.33 576.4 92.9 571.49 89.54 566.61 86.25 561.77 81.26 554.68 71.65 540.62 67.05 533.59 62.52 526.61 54.05 512.44 50.15 505.19 46.41 497.91 39.72 482.87 36.81 475.11 34.11 467.24 29.65 450.94 27.9 442.51 26.83 436.84 25.94 431.06 25.24 425.16 24.58 419.26 24.1 413.25 23.8 407.12 23.55 401 23.48 394.76 23.6 388.42 23.75 382.07 24.09 375.7 24.61 369.31 25.16 362.92 25.9 356.52 26.8 350.1 27.73 343.69 28.83 337.28 30.1 330.87 31.38 324.47 32.83 318.07 34.43 311.7 36.04 305.34 37.8 299 39.71 292.69 41.61 286.4 43.64 280.15 45.81 273.94 47.95 267.76 50.21 261.64 52.59 255.57 54.93 249.54 57.37 243.59 59.91 237.71 62.4 231.87 64.98 226.12 67.64 220.47 70.25 214.87 72.93 209.37 75.68 203.99 79.74 196.07 88.13 180.96 92.44 173.8 96.74 166.89 105.64 153.94 110.26 147.92 114.92 142.15 124.7 131.51 129.84 126.63 135.09 121.95 146.21 113.37 152.1 109.42 158.16 105.58 170.99 98.39 177.77 94.99 184.74 91.57 199.4 84.86 207.07 81.54 212.27 79.23 217.58 76.93 223 74.65 228.46 72.25 234.03 69.85 239.69 67.46 245.39 64.94 251.17 62.44 257.04 59.94 262.94 57.32 268.91 54.72 274.94 52.15 281.01 49.48 287.13 46.85 293.29 44.28 299.48 41.64 305.71 39.08 311.97 36.62 318.25 34.12 324.55 31.76 330.86 29.53 337.18 27.33 343.52 25.3 349.85 23.46 356.19 21.69 362.52 20.15 368.83 18.85 375.15 17.66 381.45 16.73 387.71 16.1" stroke-dasharray="3 2" transform="rotate(0, 400, 400)" opacity="0.05"></path><path d="M383.23 26.72C392.19 26.12 409.63 26.64 418.08 27.74 426.41 29.35 442.54 34.1 450.33 37.19 458.01 40.65 472.88 48.64 480.08 53.09 487.22 57.7 501.17 67.47 508.02 72.54 514.91 77.59 528.66 87.78 535.59 92.88 540.31 96.19 545.07 99.5 549.87 102.83 554.79 106.05 559.78 109.27 564.86 112.5 575.45 118.62 586.5 124.81 598.06 131.08 610.33 136.99 623.19 143.07 636.59 149.38 650.6 155.46 665.01 161.86 679.65 168.63 694.45 175.31 709.08 182.44 723.19 190.02 730.05 193.82 736.67 197.74 743 201.78 749.07 205.83 754.79 210.02 760.08 214.32 765.03 218.64 769.49 223.09 773.42 227.65 778.38 234.59 784.56 249.06 785.7 256.59 785.47 264.24 781.24 280.05 777.38 288.19 774.31 293.65 770.79 299.19 766.86 304.8 762.79 310.43 758.43 316.11 753.87 321.86 749.35 327.62 744.76 333.43 740.17 339.29 735.85 345.15 731.66 351.06 727.7 357.01 724.19 362.96 721.01 368.96 718.23 374.99 716.04 381.02 714.35 387.01 713.16 392.97 712.62 398.93 712.58 404.85 713.02 410.73 714.08 416.62 715.56 422.47 717.43 428.29 719.8 434.12 722.47 439.92 725.36 445.69 728.61 451.47 731.96 457.24 735.37 462.98 738.94 468.75 742.43 474.51 745.77 480.27 749.1 486.05 752.18 491.84 754.94 497.64 757.52 503.48 759.7 509.35 761.43 515.23 762.87 521.17 763.8 527.14 764.2 533.15 764.23 539.22 763.7 545.34 762.61 551.51 761.12 557.74 759.07 564.03 756.49 570.38 753.5 576.8 750.01 583.27 746.03 589.79 737.02 603.03 726.36 616.44 714.38 629.94 701.55 643.54 687.85 657.07 673.59 670.33 659.09 683.37 644.4 695.85 629.74 707.53 615.25 718.51 600.99 728.34 587.04 736.76 580.21 740.55 573.46 743.93 566.8 746.88 560.24 749.53 553.77 751.72 547.39 753.45 541.1 754.87 534.88 755.82 528.74 756.32 522.69 756.52 516.69 756.29 510.76 755.63 504.89 754.75 499.07 753.5 493.28 751.91 487.55 750.18 481.84 748.19 476.14 745.97 470.49 743.74 464.85 741.38 459.2 738.92 453.58 736.6 447.95 734.29 442.31 732.03 436.68 730.05 431.03 728.22 425.36 726.58 416.85 724.85 399.66 723.56 390.99 724.12 385.19 725.12 379.36 726.47 373.5 728.17 367.63 730.33 361.8 732.77 356.01 735.43 350.22 738.44 344.47 741.59 338.77 744.81 333.07 748.24 327.42 751.64 321.82 754.95 316.23 758.31 310.7 761.47 305.23 764.38 297.07 768.41 281.13 774.24 273.36 775.84 265.7 776.44 250.84 774.48 243.66 771.89 236.59 768.23 222.96 757.94 216.4 751.46 212.07 746.72 207.83 741.62 203.7 736.21 199.56 730.59 195.52 724.72 191.57 718.63 183.63 706.1 176.03 693.05 168.76 679.74 161.35 666.53 154.2 653.38 147.32 640.45 140.19 627.98 133.27 615.84 126.56 604.09 119.57 592.89 112.77 582.02 106.19 571.45 102.81 566.35 99.48 561.3 96.22 556.28 91.29 548.93 81.76 534.43 77.2 527.23 72.71 520.1 64.29 505.73 60.4 498.45 56.67 491.14 49.99 476.19 47.07 468.52 44.37 460.77 39.9 444.8 38.14 436.57 36.63 428.24 34.61 411.07 34.1 402.24 33.86 396.31 33.82 390.29 33.97 384.17 34.15 378.06 34.53 371.92 35.09 365.77 35.68 359.63 36.45 353.47 37.4 347.32 38.37 341.16 39.51 335.02 40.81 328.88 42.13 322.75 43.61 316.63 45.24 310.54 46.88 304.46 48.66 298.41 50.58 292.4 52.49 286.41 54.53 280.46 56.69 274.56 58.83 268.69 61.08 262.88 63.43 257.14 65.75 251.43 68.17 245.79 70.68 240.24 73.13 234.73 75.67 229.31 78.29 223.99 82.16 216.14 90.15 201.07 94.26 193.89 96.96 189.21 99.71 184.65 102.54 180.24 108 171.59 113.75 163.52 119.79 156.08 125.68 148.82 131.93 142.16 138.56 136.11 145.16 130.14 152.21 124.69 159.71 119.74 167.29 114.69 175.37 110.02 183.94 105.65 190.5 102.25 204.31 95.53 211.54 92.18 218.94 88.69 234.33 81.57 242.31 77.94 247.69 75.4 253.16 72.87 258.71 70.35 264.29 67.71 269.95 65.1 275.67 62.52 281.42 59.85 287.23 57.22 293.08 54.66 298.96 52.03 304.88 49.48 310.84 47.04 316.81 44.57 322.81 42.22 328.83 40.02 334.87 37.84 340.91 35.84 346.96 34.02 353.02 32.28 359.07 30.75 365.12 29.46 371.17 28.28 377.2 27.36 383.22 26.73" stroke-dasharray="3 1" transform="rotate(3.6363636363636367, 400, 400)" opacity="0.08"></path><path d="M379.42 37.35C388.04 36.74 404.85 37.18 413.03 38.23 421.12 39.76 436.84 44.35 444.48 47.33 454.62 51.75 464.44 56.96 473.97 62.84 483.59 68.81 493.01 75.24 502.28 82.03 511.77 88.63 521.24 95.43 530.78 102.35 540.71 108.9 550.87 115.5 561.33 122.14 572.33 128.35 583.77 134.61 595.68 140.93 608.19 146.89 621.19 152.99 634.62 159.27 648.5 165.3 662.63 171.6 676.83 178.22 691.03 184.71 704.9 191.59 718.13 198.89 730.68 206.16 742.04 213.89 751.87 222.06 760.31 230.28 766.74 238.97 770.92 248.09 773.33 257.27 773.36 266.87 771.03 276.86 767.19 286.9 761.4 297.3 753.98 308.01 750.07 313.38 745.91 318.82 741.56 324.33 737.28 329.84 732.94 335.41 728.61 341.05 724.53 346.69 720.59 352.39 716.84 358.14 713.52 363.89 710.51 369.69 707.86 375.54 705.76 381.39 704.12 387.23 702.93 393.04 702.28 401.75 704.05 419.07 706.33 427.68 708.45 433.43 710.85 439.16 713.47 444.88 719.68 456.37 726.14 467.85 732.38 479.34 738.69 490.95 743.93 502.64 747.77 514.41 750.61 526.39 751.55 538.52 750.49 550.81 747.98 563.34 743.4 576.05 736.91 588.9 729.08 601.94 719.62 615.07 708.78 628.19 697.06 641.31 684.39 654.25 671.03 666.83 657.32 679.09 643.29 690.71 629.15 701.45 615.05 711.48 601.06 720.32 587.28 727.76 573.77 734.13 560.54 738.9 547.62 741.96 535.01 743.87 522.68 744.13 510.6 742.79 498.78 740.7 487.13 737.41 475.63 733.2 464.28 729.05 452.99 724.63 441.73 720.3 433.32 717.69 416.49 713.93 408.05 712.96 399.6 712.96 382.62 715.25 374.08 717.54 368.39 719.61 362.74 721.93 357.14 724.45 351.55 727.3 346.01 730.28 340.52 733.33 335.04 736.58 329.61 739.8 324.24 742.95 318.88 746.15 313.59 749.18 308.36 751.99 297.92 757.29 287.77 761.22 277.96 763.52 268.17 764.64 258.73 763.82 249.66 761.03 240.61 756.85 231.93 750.79 223.64 743.05 215.33 734.2 207.38 724.02 199.78 712.8 192.1 701.01 184.73 688.6 177.66 675.8 170.42 662.99 163.41 650.11 156.65 637.33 149.63 624.89 142.8 612.69 136.16 600.79 129.25 589.36 122.51 578.23 115.99 567.39 109.22 556.98 102.7 546.75 96.48 536.66 90.11 526.88 84.11 517.12 78.55 507.3 72.97 497.68 67.91 487.89 63.42 477.9 59.04 468 55.29 457.82 52.22 447.35 50.11 439.46 46.86 423.28 45.74 414.98 44.87 406.59 44.17 389.39 44.33 380.59 44.55 374.69 44.96 368.78 45.55 362.87 46.18 356.96 46.99 351.05 47.97 345.15 48.97 339.26 50.15 333.37 51.48 327.5 52.84 321.64 54.34 315.81 55.99 310 59.31 298.43 63.17 287.01 67.5 275.82 71.74 264.72 76.4 253.89 81.4 243.4 86.21 233.06 91.31 223.1 96.67 213.6 101.78 204.28 107.12 195.46 112.7 187.18 118.02 179.09 123.61 171.55 129.46 164.6 135.14 157.79 141.15 151.53 147.51 145.81 153.8 140.13 160.5 134.92 167.62 130.14 174.79 125.22 182.42 120.62 190.51 116.29 198.71 111.64 207.38 107.14 216.49 102.75 225.74 97.91 235.42 93.1 245.46 88.33 255.65 83.09 266.17 77.91 276.97 72.83 287.87 67.42 299.01 62.24 310.3 57.42 315.98 54.98 321.69 52.66 327.42 50.49 333.16 48.34 338.93 46.36 344.7 44.57 350.48 42.85 356.27 41.34 362.06 40.07 367.85 38.9 373.64 37.99 379.41 37.35" stroke-dasharray="1 2" transform="rotate(7.272727272727273, 400, 400)" opacity="0.11"></path><path d="M376.47 47.98C387.57 47.1 398.4 47.36 408.94 48.72 419.48 50.62 429.73 53.57 439.71 57.47 449.71 61.74 459.48 66.81 469.05 72.54 478.72 78.39 488.28 84.73 497.77 91.42 507.48 97.98 517.25 104.75 527.15 111.67 537.41 118.25 547.92 124.91 558.75 131.6 570.06 137.89 581.77 144.23 593.89 150.62 606.51 156.64 619.51 162.78 632.82 169.07 646.43 175.08 660.15 181.33 673.78 187.84 687.29 194.2 700.33 200.9 712.62 207.95 724.15 214.95 734.45 222.37 743.21 230.2 750.61 238.03 756.08 246.3 759.43 254.99 761.14 263.7 760.65 272.84 758.01 282.36 754.04 291.91 748.32 301.82 741.14 312.07 733.61 322.33 725.43 332.91 717.08 343.76 709.69 354.62 703.03 365.74 697.49 377.11 694.01 388.47 692.2 399.82 692.06 411.13 694.02 422.47 697.33 433.79 701.67 445.1 707.32 456.47 713.27 467.88 719.08 479.34 725.07 490.91 730.16 502.58 734.03 514.35 737.11 526.29 738.48 538.38 738.03 550.6 736.3 563 732.66 575.54 727.21 588.16 720.49 600.89 712.18 613.62 702.49 626.25 691.9 638.8 680.28 651.07 667.89 662.88 655.07 674.31 641.8 685.03 628.29 694.83 614.72 703.9 601.14 711.78 587.66 718.29 574.36 723.8 561.25 727.79 548.4 730.18 535.79 731.57 523.42 731.44 511.3 729.88 499.4 727.71 487.7 724.49 476.16 720.48 464.77 716.62 453.49 712.57 442.28 708.63 431.16 705.73 420.05 703.53 408.97 702.26 397.91 702.64 386.83 704.19 375.74 706.91 364.66 711.25 353.82 716.33 343.24 721.86 332.66 728.16 322.35 734.19 312.34 739.62 302.32 744.77 292.62 748.69 283.25 751.13 273.89 752.54 264.87 752.15 256.21 749.95 247.54 746.46 239.22 741.19 231.26 734.3 223.26 726.32 215.58 717.02 208.23 706.63 200.77 695.63 193.58 683.91 186.66 671.72 179.56 659.39 172.67 646.89 165.99 634.37 159.05 622.07 152.29 609.92 145.71 598 138.85 586.45 132.17 575.16 125.69 564.12 118.98 553.46 112.51 543 106.34 532.68 100.03 522.67 94.08 512.71 88.55 502.75 83.02 492.99 77.99 483.13 73.53 473.13 69.18 463.24 65.45 453.14 62.4 442.81 59.54 432.52 57.38 421.95 55.98 411.12 54.79 400.29 54.36 389.18 54.7 377.8 55.25 366.42 56.53 355.06 58.51 343.75 60.62 332.46 63.36 321.26 66.69 310.21 70.04 299.2 73.92 288.37 78.25 277.79 82.49 267.3 87.12 257.1 92.08 247.24 96.84 237.52 101.88 228.18 107.17 219.31 112.19 210.58 117.45 202.33 122.91 194.61 128.12 187.03 133.56 179.98 139.25 173.47 144.75 167.05 150.55 161.13 156.66 155.71 162.68 150.27 169.08 145.24 175.85 140.59 182.64 135.77 189.86 131.22 197.5 126.89 205.21 122.23 213.38 117.69 221.96 113.23 230.65 108.34 239.75 103.47 249.22 98.64 258.8 93.37 268.72 88.16 278.93 83.08 289.22 77.69 299.76 72.55 310.49 67.77 321.27 62.95 332.2 58.68 343.22 55.1 354.26 51.8 365.35 49.38 376.46 47.98" stroke-dasharray="2 1" transform="rotate(10.90909090909091, 400, 400)" opacity="0.14"></path><path d="M374.49 58.61C385.18 57.72 395.66 57.93 405.93 59.21 416.19 61.02 426.25 63.84 436.11 67.59 446.01 71.72 455.75 76.63 465.37 82.21 475.1 87.92 484.79 94.14 494.49 100.73 504.4 107.22 514.42 113.95 524.61 120.84 535.13 127.44 545.92 134.13 557.01 140.87 568.51 147.24 580.37 153.65 592.56 160.11 605.14 166.21 618 172.4 631.04 178.72 644.26 184.75 657.46 190.98 670.43 197.42 683.16 203.69 695.31 210.25 706.62 217.13 717.13 223.92 726.38 231.08 734.1 238.62 740.52 246.13 745.1 254.05 747.67 262.36 748.76 270.68 747.83 279.4 744.93 288.49 740.88 297.6 735.26 307.08 728.35 316.9 721.18 326.73 713.45 336.89 705.58 347.35 698.65 357.81 692.37 368.58 687.12 379.62 683.77 390.66 681.93 401.74 681.61 412.82 683.25 423.93 686.12 435.07 689.96 446.24 695.08 457.47 700.51 468.77 705.89 480.14 711.53 491.61 716.43 503.2 720.28 514.89 723.5 526.71 725.21 538.66 725.29 550.71 724.24 562.88 721.44 575.14 716.94 587.42 711.27 599.73 704.05 611.96 695.48 624 686.01 635.9 675.47 647.42 664.09 658.42 652.21 668.99 639.78 678.79 627.01 687.65 614.09 695.78 601.04 702.74 588 708.38 575.03 713.09 562.18 716.37 549.51 718.17 537.02 719.09 524.74 718.65 512.68 716.93 500.79 714.73 489.1 711.62 477.6 707.84 466.22 704.28 454.98 700.58 443.86 697.03 432.81 694.49 421.84 692.61 410.93 691.57 400.05 692.08 389.21 693.65 378.41 696.29 367.61 700.41 357.09 705.22 346.87 710.42 336.64 716.37 326.71 722.09 317.09 727.27 307.46 732.26 298.15 736.14 289.17 738.68 280.18 740.33 271.52 740.34 263.22 738.66 254.87 735.81 246.86 731.28 239.19 725.2 231.43 718.08 223.98 709.64 216.83 700.1 209.54 689.91 202.51 678.94 195.71 667.41 188.71 655.65 181.9 643.62 175.29 631.47 168.42 619.43 161.7 607.45 155.16 595.61 148.35 584.06 141.72 572.7 135.27 561.57 128.62 550.75 122.2 540.12 116.07 529.65 109.82 519.45 103.92 509.33 98.44 499.26 92.97 489.37 87.99 479.44 83.56 469.45 79.25 459.55 75.56 449.51 72.53 439.32 69.71 429.16 67.59 418.8 66.22 408.24 65.07 397.69 64.68 386.91 65.07 375.93 65.67 364.95 67.01 354.03 69.03 343.22 71.19 332.41 73.97 321.74 77.33 311.23 80.71 300.78 84.6 290.53 88.92 280.54 93.16 270.63 97.76 261.03 102.69 251.78 107.41 242.65 112.41 233.9 117.63 225.6 122.59 217.43 127.77 209.71 133.14 202.49 138.26 195.38 143.59 188.76 149.14 182.63 154.48 176.55 160.1 170.93 166 165.75 171.78 160.5 177.9 155.62 184.37 151.06 190.82 146.3 197.66 141.76 204.89 137.41 212.17 132.73 219.86 128.13 227.95 123.61 236.12 118.66 244.69 113.73 253.61 108.85 262.62 103.55 271.97 98.34 281.61 93.25 291.32 87.9 301.29 82.81 311.47 78.08 321.69 73.33 332.09 69.14 342.61 65.62 353.15 62.38 363.79 60 374.48 58.61" stroke-dasharray="0 2" transform="rotate(14.545454545454547, 400, 400)" opacity="0.17"></path><path d="M373.56 69.24C383.87 68.34 394.04 68.5 404.05 69.7 414.08 71.41 423.96 74.11 433.72 77.7 443.53 81.68 453.25 86.42 462.92 91.83 472.71 97.4 482.51 103.48 492.37 109.95 502.45 116.35 512.66 123.02 523.06 129.86 533.76 136.46 544.72 143.17 555.95 149.94 567.53 156.37 579.4 162.85 591.53 169.38 603.93 175.56 616.52 181.82 629.17 188.18 641.88 194.25 654.45 200.48 666.67 206.9 678.57 213.12 689.79 219.6 700.11 226.35 709.6 232.98 717.83 239.95 724.55 247.25 730.05 254.5 733.8 262.12 735.67 270.12 736.21 278.09 734.9 286.45 731.8 295.17 727.72 303.89 722.23 312.98 715.6 322.42 708.8 331.85 701.51 341.63 694.13 351.73 687.63 361.82 681.73 372.24 676.76 382.97 673.53 393.7 671.68 404.5 671.19 415.35 672.52 426.22 674.98 437.16 678.35 448.16 682.94 459.21 687.87 470.36 692.81 481.59 698.08 492.9 702.74 504.32 706.51 515.84 709.8 527.46 711.77 539.18 712.28 550.95 711.83 562.81 709.76 574.68 706.12 586.51 701.42 598.3 695.24 609.95 687.74 621.33 679.37 632.5 669.9 643.24 659.55 653.38 648.66 663.07 637.15 671.96 625.19 679.89 613.01 687.11 600.6 693.2 588.1 698.02 575.6 702 563.13 704.64 550.76 705.93 538.52 706.46 526.42 705.77 514.51 703.95 502.74 701.76 491.15 698.8 479.74 695.26 468.45 692.01 457.3 688.67 446.29 685.49 435.36 683.3 424.53 681.71 413.81 680.9 403.12 681.53 392.49 683.12 381.96 685.66 371.43 689.58 361.21 694.11 351.31 699.01 341.4 704.61 331.81 710.02 322.54 714.95 313.24 719.76 304.27 723.57 295.64 726.18 286.97 728.03 278.62 728.37 270.61 727.17 262.55 724.9 254.79 721.07 247.34 715.75 239.8 709.46 232.53 701.87 225.54 693.18 218.38 683.81 211.46 673.62 204.75 662.8 197.83 651.69 191.08 640.21 184.51 628.52 177.68 616.85 171.01 605.14 164.49 593.5 157.73 582.06 151.13 570.75 144.72 559.61 138.12 548.74 131.75 538.02 125.67 527.46 119.48 517.14 113.65 506.92 108.22 496.77 102.82 486.8 97.89 476.83 93.51 466.84 89.26 456.95 85.62 446.97 82.64 436.9 79.87 426.88 77.79 416.71 76.45 406.41 75.36 396.11 75.01 385.66 75.44 375.06 76.09 364.46 77.47 353.97 79.52 343.62 81.73 333.29 84.54 323.11 87.91 313.14 91.31 303.21 95.2 293.51 99.52 284.1 103.75 274.74 108.33 265.71 113.22 257.04 117.92 248.45 122.88 240.25 128.05 232.49 132.96 224.81 138.08 217.58 143.38 210.81 148.42 204.11 153.66 197.86 159.09 192.06 164.31 186.27 169.78 180.89 175.5 175.89 181.07 170.8 186.96 166.01 193.16 161.51 199.31 156.78 205.82 152.24 212.69 147.85 219.57 143.12 226.83 138.47 234.48 133.87 242.17 128.87 250.24 123.89 258.66 118.96 267.14 113.65 275.95 108.43 285.06 103.36 294.23 98.05 303.66 93.02 313.32 88.36 323.02 83.69 332.92 79.58 342.97 76.13 353.04 72.96 363.24 70.62 373.55 69.24" stroke-dasharray="3 2" transform="rotate(18.181818181818183, 400, 400)" opacity="0.19"></path><path d="M373.73 79.86C383.69 78.96 393.57 79.08 403.35 80.2 413.15 81.81 422.88 84.37 432.55 87.81 442.26 91.62 451.97 96.2 461.66 101.43 471.48 106.83 481.37 112.75 491.34 119.08 501.51 125.38 511.85 131.96 522.37 138.74 533.15 145.32 544.18 152.02 555.43 158.8 566.96 165.28 578.71 171.81 590.64 178.39 602.75 184.65 614.94 190.98 627.09 197.39 639.19 203.52 651.04 209.78 662.45 216.2 673.47 222.41 683.74 228.84 693.06 235.5 701.56 242.03 708.8 248.84 714.57 255.97 719.21 263.01 722.2 270.4 723.45 278.12 723.51 285.81 721.88 293.86 718.64 302.27 714.57 310.65 709.24 319.39 702.9 328.49 696.47 337.56 689.63 346.99 682.7 356.76 676.62 366.51 671.09 376.61 666.39 387.03 663.29 397.46 661.43 407.98 660.8 418.58 661.84 429.19 663.92 439.9 666.84 450.7 670.93 461.53 675.36 472.47 679.85 483.49 684.74 494.58 689.12 505.77 692.77 517.03 696.06 528.36 698.2 539.76 699.06 551.17 699.1 562.6 697.68 574.01 694.81 585.29 690.99 596.5 685.78 607.49 679.28 618.14 671.96 628.54 663.56 638.45 654.24 647.72 644.36 656.52 633.79 664.51 622.71 671.55 611.35 677.91 599.66 683.18 587.8 687.25 575.87 690.57 563.89 692.65 551.94 693.5 540.05 693.72 528.25 692.84 516.59 690.97 505.04 688.84 493.63 686.04 482.39 682.77 471.24 679.82 460.24 676.84 449.4 674.03 438.62 672.16 427.96 670.85 417.44 670.25 406.94 670.98 396.54 672.58 386.26 675.03 375.98 678.75 366.04 683.02 356.43 687.61 346.81 692.88 337.51 697.98 328.55 702.66 319.55 707.27 310.87 711 302.53 713.65 294.13 715.65 286.05 716.28 278.29 715.49 270.45 713.76 262.9 710.56 255.64 705.97 248.26 700.46 241.13 693.69 234.25 685.84 227.2 677.31 220.36 667.92 213.7 657.85 206.84 647.44 200.14 636.58 193.59 625.43 186.81 614.22 180.16 602.89 173.66 591.54 166.94 580.32 160.38 569.16 154.01 558.13 147.47 547.29 141.15 536.59 135.13 526.02 129.02 515.66 123.25 505.4 117.89 495.23 112.56 485.21 107.71 475.23 103.39 465.28 99.22 455.42 95.64 445.52 92.71 435.58 90 425.69 87.98 415.71 86.68 405.65 85.64 395.6 85.34 385.45 85.8 375.22 86.5 364.98 87.92 354.9 90 345 92.23 335.1 95.06 325.41 98.43 315.95 101.85 306.51 105.73 297.33 110.03 288.45 114.25 279.62 118.82 271.11 123.67 262.97 128.35 254.88 133.27 247.18 138.39 239.9 143.28 232.67 148.35 225.86 153.59 219.49 158.57 213.15 163.73 207.21 169.08 201.69 174.2 196.13 179.54 190.94 185.11 186.08 190.52 181.1 196.2 176.38 202.18 171.9 208.07 167.18 214.29 162.61 220.84 158.17 227.37 153.39 234.26 148.67 241.5 144.01 248.76 138.95 256.38 133.93 264.34 128.97 272.33 123.66 280.66 118.45 289.28 113.4 297.94 108.15 306.88 103.19 316.07 98.6 325.27 94.03 334.7 90 344.32 86.63 353.95 83.52 363.76 81.24 373.72 79.87" stroke-dasharray="3 1" transform="rotate(21.81818181818182, 400, 400)" opacity="0.22"></path><path d="M374.98 90.49C384.62 89.59 394.23 89.66 403.8 90.7 413.39 92.21 422.96 94.64 432.53 97.91 442.15 101.56 451.8 105.95 461.5 110.99 471.31 116.22 481.22 121.97 491.25 128.14 501.45 134.31 511.83 140.78 522.38 147.47 533.14 154 544.11 160.68 555.27 167.45 566.62 173.95 578.14 180.53 589.75 187.15 601.45 193.48 613.13 199.87 624.67 206.33 636.09 212.53 647.16 218.83 657.71 225.27 667.81 231.49 677.12 237.9 685.46 244.51 692.99 250.97 699.29 257.68 704.18 264.67 708.02 271.56 710.33 278.75 711.03 286.27 710.67 293.72 708.79 301.51 705.46 309.64 701.43 317.73 696.29 326.18 690.26 334.96 684.2 343.72 677.79 352.83 671.31 362.28 665.64 371.72 660.46 381.5 656.02 391.62 653.05 401.75 651.18 411.98 650.43 422.31 651.2 432.66 652.92 443.11 655.42 453.65 659.02 464.22 662.97 474.9 667.02 485.65 671.5 496.45 675.59 507.34 679.06 518.26 682.3 529.23 684.55 540.21 685.66 551.17 686.1 562.11 685.23 572.96 683.03 583.63 680.01 594.18 675.67 604.46 670.12 614.34 663.8 623.94 656.41 633 648.1 641.4 639.23 649.33 629.63 656.45 619.46 662.63 608.97 668.19 598.08 672.7 586.94 676.1 575.67 678.82 564.27 680.43 552.83 680.91 541.4 680.87 529.99 679.87 518.68 677.99 507.43 675.96 496.3 673.35 485.3 670.36 474.38 667.73 463.59 665.08 452.96 662.63 442.38 661.07 431.92 660.02 421.61 659.62 411.33 660.44 401.16 662.04 391.13 664.4 381.1 667.93 371.41 671.94 362.07 676.24 352.71 681.18 343.68 685.97 334.98 690.39 326.25 694.81 317.83 698.42 309.72 701.08 301.56 703.19 293.7 704.06 286.13 703.64 278.48 702.39 271.09 699.77 263.97 695.85 256.72 691.08 249.7 685.11 242.9 678.06 235.93 670.36 229.14 661.78 222.53 652.49 215.71 642.82 209.04 632.64 202.51 622.1 195.75 611.43 189.13 600.56 182.66 589.61 175.97 578.71 169.45 567.81 163.13 556.97 156.65 546.28 150.4 535.68 144.44 525.19 138.41 514.87 132.73 504.64 127.45 494.51 122.22 484.52 117.45 474.58 113.21 464.69 109.12 454.89 105.62 445.09 102.76 435.3 100.12 425.55 98.16 415.76 96.92 405.94 95.93 396.14 95.68 386.29 96.17 376.4 96.91 366.51 98.35 356.81 100.44 347.34 102.7 337.87 105.53 328.62 108.9 319.63 112.32 310.66 116.19 301.96 120.46 293.58 124.67 285.23 129.21 277.2 134.03 269.54 138.68 261.91 143.57 254.65 148.66 247.79 153.52 240.96 158.55 234.52 163.74 228.48 168.68 222.44 173.79 216.77 179.06 211.46 184.11 206.09 189.35 201.04 194.8 196.28 200.08 191.37 205.6 186.69 211.38 182.2 217.06 177.47 223.03 172.86 229.31 168.36 235.54 163.52 242.1 158.74 248.99 154.01 255.87 148.91 263.09 143.86 270.63 138.87 278.19 133.57 286.08 128.38 294.26 123.38 302.45 118.2 310.94 113.31 319.69 108.81 328.45 104.34 337.45 100.41 346.67 97.11 355.9 94.09 365.34 91.85 374.97 90.49" stroke-dasharray="2 2" transform="rotate(25.454545454545457, 400, 400)" opacity="0.25"></path><path d="M377.27 101.12C386.6 100.21 395.96 100.25 405.32 101.2 414.7 102.61 424.12 104.9 433.57 108.01 443.08 111.49 452.66 115.69 462.31 120.53 472.07 125.58 481.95 131.14 491.95 137.13 502.1 143.15 512.42 149.49 522.89 156.07 533.54 162.52 544.34 169.14 555.28 175.88 566.36 182.38 577.52 188.97 588.69 195.62 599.88 202 610.97 208.45 621.82 214.96 632.48 221.21 642.72 227.56 652.38 234.03 661.56 240.28 669.92 246.69 677.3 253.27 683.91 259.7 689.32 266.35 693.39 273.23 696.51 280.01 698.2 287.06 698.42 294.4 697.72 301.66 695.65 309.24 692.27 317.13 688.32 324.98 683.39 333.16 677.67 341.67 671.99 350.15 666 358.97 659.96 368.12 654.68 377.26 649.84 386.74 645.65 396.56 642.81 406.38 640.95 416.33 640.08 426.36 640.61 436.41 642 446.58 644.1 456.82 647.24 467.09 650.72 477.45 654.33 487.87 658.4 498.32 662.17 508.83 665.43 519.34 668.56 529.87 670.84 540.37 672.13 550.8 672.88 561.18 672.46 571.41 670.85 581.41 668.52 591.26 664.97 600.78 660.28 609.86 654.9 618.65 648.47 626.87 641.14 634.41 633.25 641.5 624.62 647.78 615.37 653.16 605.78 657.98 595.74 661.81 585.37 664.6 574.83 666.81 564.09 668.01 553.25 668.2 542.36 667.97 531.45 666.89 520.57 665.06 509.71 663.15 498.93 660.76 488.25 658.05 477.63 655.72 467.11 653.42 456.74 651.3 446.4 650.03 436.19 649.23 426.12 649.01 416.08 649.91 406.15 651.51 396.37 653.77 386.58 657.12 377.14 660.88 368.05 664.89 358.93 669.51 350.14 674.01 341.68 678.17 333.17 682.37 324.97 685.86 317.07 688.49 309.1 690.67 301.42 691.74 294.01 691.63 286.51 690.8 279.25 688.71 272.24 685.41 265.09 681.33 258.15 676.11 251.41 669.85 244.49 662.96 237.75 655.19 231.16 646.69 224.37 637.78 217.72 628.31 211.2 618.44 204.48 608.38 197.88 598.06 191.43 587.58 184.8 577.09 178.33 566.54 172.05 556 165.65 545.55 159.48 535.15 153.6 524.83 147.67 514.64 142.09 504.52 136.9 494.5 131.77 484.59 127.11 474.75 122.96 464.97 118.98 455.27 115.56 445.61 112.78 435.98 110.23 426.39 108.34 416.8 107.15 407.23 106.22 397.68 106.01 388.11 106.54 378.56 107.31 369 108.77 359.68 110.87 350.6 113.13 341.52 115.96 332.69 119.31 324.14 122.72 315.6 126.57 307.35 130.81 299.41 134.99 291.5 139.5 283.9 144.28 276.66 148.91 269.44 153.77 262.58 158.82 256.08 163.66 249.59 168.66 243.46 173.81 237.7 178.72 231.9 183.79 226.44 189.01 221.3 194 216.07 199.17 211.12 204.52 206.42 209.7 201.55 215.09 196.87 220.72 192.37 226.22 187.6 231.99 182.94 238.03 178.38 244.01 173.49 250.29 168.65 256.87 163.86 263.42 158.73 270.3 153.65 277.48 148.66 284.65 143.38 292.14 138.23 299.93 133.28 307.72 128.19 315.8 123.39 324.15 118.98 332.5 114.63 341.11 110.79 349.97 107.59 358.83 104.64 367.93 102.46 377.26 101.12" stroke-dasharray="2 0" transform="rotate(29.090909090909093, 400, 400)" opacity="0.28"></path><path d="M380.5 111.75C389.54 110.84 398.65 110.84 407.8 111.71 416.98 113.02 426.22 115.17 435.54 118.12 444.9 121.41 454.36 125.42 463.92 130.05 473.56 134.89 483.34 140.26 493.24 146.06 503.26 151.91 513.43 158.09 523.73 164.53 534.15 170.88 544.69 177.42 555.3 184.09 565.99 190.57 576.69 197.15 587.33 203.8 597.92 210.22 608.33 216.7 618.44 223.24 628.3 229.55 637.68 235.95 646.44 242.44 654.7 248.73 662.13 255.15 668.59 261.72 674.32 268.14 678.9 274.74 682.23 281.55 684.69 288.25 685.85 295.19 685.66 302.39 684.67 309.51 682.46 316.91 679.08 324.6 675.24 332.24 670.54 340.19 665.15 348.44 659.83 356.67 654.26 365.22 648.64 374.08 643.74 382.94 639.22 392.13 635.29 401.64 632.57 411.16 630.72 420.79 629.75 430.51 630.07 440.25 631.14 450.08 632.87 459.98 635.57 469.91 638.6 479.9 641.78 489.93 645.44 499.97 648.87 510.04 651.88 520.08 654.86 530.1 657.11 540.07 658.51 549.9 659.49 559.66 659.43 569.23 658.31 578.52 656.57 587.63 653.72 596.38 649.81 604.65 645.28 612.63 639.75 620.02 633.34 626.73 626.41 633.02 618.72 638.53 610.39 643.17 601.72 647.3 592.54 650.52 582.98 652.78 573.23 654.56 563.21 655.42 553.02 655.38 542.76 655.02 532.4 653.92 522.02 652.17 511.65 650.41 501.29 648.25 491 645.83 480.74 643.81 470.56 641.83 460.49 640.04 450.46 639.04 440.53 638.47 430.73 638.41 420.95 639.39 411.28 640.97 401.75 643.15 392.22 646.3 383.02 649.82 374.16 653.56 365.28 657.88 356.71 662.07 348.45 665.98 340.15 669.95 332.14 673.3 324.41 675.89 316.62 678.1 309.08 679.32 301.8 679.49 294.43 679.02 287.27 677.4 280.34 674.66 273.27 671.22 266.39 666.7 259.69 661.19 252.82 655.08 246.1 648.1 239.53 640.39 232.77 632.26 226.14 623.54 219.64 614.37 212.95 604.97 206.39 595.26 199.98 585.33 193.41 575.33 187 565.22 180.79 555.07 174.47 544.95 168.4 534.84 162.6 524.77 156.79 514.79 151.32 504.87 146.24 495.03 141.24 485.27 136.69 475.58 132.65 465.97 128.78 456.42 125.48 446.93 122.78 437.49 120.32 428.09 118.51 418.73 117.38 409.41 116.52 400.11 116.35 390.83 116.91 381.6 117.71 372.37 119.18 363.4 121.27 354.69 123.53 345.98 126.35 337.55 129.67 329.4 133.05 321.25 136.87 313.4 141.07 305.87 145.22 298.34 149.69 291.14 154.43 284.27 159.03 277.4 163.86 270.87 168.87 264.68 173.68 258.48 178.66 252.61 183.78 247.06 188.67 241.46 193.71 236.16 198.88 231.15 203.84 226.02 208.95 221.13 214.24 216.46 219.33 211.61 224.62 206.92 230.13 202.37 235.49 197.57 241.1 192.85 246.95 188.22 252.72 183.28 258.76 178.39 265.09 173.55 271.36 168.41 277.94 163.32 284.81 158.33 291.65 153.1 298.79 148.01 306.23 143.12 313.65 138.12 321.37 133.43 329.36 129.13 337.35 124.89 345.61 121.16 354.14 118.05 362.66 115.19 371.44 113.06 380.49 111.75" stroke-dasharray="1 2" transform="rotate(32.72727272727273, 400, 400)" opacity="0.31"></path><path d="M384.53 122.38C393.3 121.47 402.17 121.43 411.1 122.23 420.06 123.43 429.11 125.45 438.25 128.22 447.43 131.34 456.73 135.14 466.13 139.56 475.61 144.19 485.21 149.34 494.93 154.92 504.74 160.58 514.67 166.59 524.69 172.87 534.79 179.09 544.96 185.52 555.15 192.1 565.35 198.52 575.51 205.06 585.54 211.68 595.46 218.1 605.14 224.6 614.45 231.16 623.48 237.5 631.99 243.93 639.85 250.44 647.21 256.77 653.75 263.21 659.33 269.77 664.24 276.19 668.06 282.76 670.72 289.52 672.6 296.16 673.29 303.02 672.76 310.1 671.55 317.09 669.24 324.35 665.91 331.86 662.21 339.32 657.75 347.06 652.68 355.09 647.74 363.08 642.56 371.38 637.36 379.97 632.82 388.56 628.62 397.45 624.92 406.65 622.33 415.86 620.5 425.17 619.45 434.55 619.56 443.94 620.36 453.41 621.73 462.94 624.02 472.47 626.62 482.05 629.38 491.64 632.63 501.23 635.7 510.8 638.45 520.31 641.23 529.78 643.4 539.15 644.84 548.35 645.97 557.45 646.19 566.32 645.46 574.88 644.22 583.24 641.98 591.21 638.76 598.69 635 605.87 630.29 612.47 624.74 618.39 618.71 623.93 611.93 628.71 604.5 632.68 596.72 636.21 588.41 638.89 579.68 640.7 570.74 642.11 561.48 642.71 552 642.51 542.41 642.07 532.68 640.99 522.87 639.35 513.03 637.76 503.17 635.84 493.32 633.72 483.49 632 473.7 630.34 463.99 628.85 454.3 628.1 444.7 627.74 435.2 627.83 425.72 628.87 416.33 630.43 407.07 632.52 397.8 635.5 388.85 638.79 380.21 642.26 371.56 646.28 363.2 650.18 355.13 653.83 347.02 657.57 339.18 660.77 331.6 663.28 323.96 665.5 316.55 666.84 309.37 667.22 302.1 667.06 295.03 665.86 288.16 663.62 281.16 660.77 274.33 656.9 267.66 652.09 260.83 646.73 254.14 640.52 247.59 633.58 240.87 626.22 234.26 618.27 227.79 609.82 221.15 601.13 214.64 592.07 208.27 582.74 201.77 573.31 195.44 563.71 189.31 554.02 183.11 544.32 177.14 534.58 171.46 524.85 165.78 515.17 160.44 505.52 155.49 495.93 150.62 486.4 146.21 476.93 142.29 467.53 138.55 458.19 135.36 448.91 132.76 439.7 130.4 430.52 128.68 421.4 127.61 412.35 126.82 403.31 126.7 394.32 127.27 385.41 128.1 376.49 129.57 367.85 131.65 359.5 133.9 351.14 136.69 343.06 139.97 335.28 143.32 327.49 147.09 320.01 151.23 312.83 155.35 305.65 159.77 298.77 164.46 292.23 169.02 285.66 173.81 279.41 178.78 273.48 183.57 267.51 188.52 261.85 193.61 256.48 198.48 251.03 203.5 245.85 208.64 240.92 213.57 235.86 218.65 231 223.87 226.34 228.91 221.48 234.13 216.76 239.54 212.17 244.8 207.32 250.27 202.55 255.98 197.86 261.57 192.88 267.43 187.95 273.54 183.08 279.58 177.94 285.9 172.86 292.51 167.89 299.06 162.72 305.91 157.7 313.05 152.9 320.15 148.01 327.55 143.43 335.22 139.24 342.88 135.13 350.83 131.52 359.05 128.5 367.25 125.73 375.75 123.67 384.52 122.38" stroke-dasharray="3 3" transform="rotate(36.36363636363637, 400, 400)" opacity="0.34"></path><path d="M389.2 133C397.71 132.11 406.32 132.03 415.02 132.75 423.74 133.85 432.58 135.73 441.5 138.33 450.47 141.26 459.55 144.86 468.74 149.05 477.98 153.46 487.34 158.38 496.79 163.74 506.3 169.2 515.91 175 525.56 181.09 535.25 187.16 544.97 193.45 554.64 199.9 564.29 206.24 573.83 212.71 583.18 219.27 592.39 225.67 601.29 232.15 609.78 238.69 617.97 245.06 625.62 251.5 632.59 258.02 639.09 264.36 644.77 270.81 649.55 277.37 653.69 283.78 656.83 290.34 658.88 297.05 660.26 303.64 660.55 310.43 659.74 317.4 658.37 324.3 656.02 331.42 652.76 338.78 649.22 346.08 645.02 353.63 640.29 361.44 635.7 369.22 630.92 377.27 626.11 385.6 621.92 393.91 618.02 402.51 614.55 411.39 612.09 420.27 610.29 429.24 609.17 438.26 609.1 447.28 609.63 456.37 610.68 465.47 612.58 474.58 614.77 483.71 617.13 492.81 619.97 501.9 622.69 510.93 625.15 519.87 627.7 528.75 629.74 537.5 631.17 546.03 632.37 554.46 632.79 562.61 632.37 570.42 631.54 578.04 629.8 585.24 627.18 591.94 624.09 598.37 620.13 604.21 615.37 609.4 610.17 614.24 604.24 618.37 597.67 621.75 590.76 624.74 583.31 626.96 575.41 628.4 567.29 629.51 558.81 629.9 550.06 629.6 541.19 629.13 532.12 628.11 522.92 626.62 513.68 625.22 504.36 623.55 495.01 621.71 485.66 620.29 476.31 618.92 467.01 617.72 457.72 617.21 448.47 617.04 439.31 617.27 430.15 618.35 421.07 619.9 412.09 621.89 403.1 624.69 394.4 627.76 386 630.98 377.57 634.7 369.42 638.33 361.53 641.72 353.61 645.23 345.92 648.25 338.48 650.67 330.98 652.87 323.68 654.28 316.6 654.84 309.43 654.94 302.43 654.09 295.62 652.31 288.68 649.98 281.9 646.71 275.26 642.56 268.48 637.89 261.82 632.42 255.3 626.23 248.62 619.64 242.06 612.44 235.62 604.74 229.05 596.76 222.6 588.39 216.3 579.72 209.9 570.91 203.66 561.88 197.64 552.71 191.55 543.5 185.72 534.21 180.17 524.88 174.64 515.58 169.44 506.27 164.64 497 159.93 487.77 155.66 478.58 151.88 469.46 148.28 460.38 145.22 451.35 142.73 442.41 140.48 433.49 138.84 424.63 137.85 415.86 137.12 407.1 137.04 398.41 137.64 389.82 138.48 381.22 139.96 372.9 142.01 364.88 144.24 356.84 146.99 349.1 150.22 341.65 153.52 334.19 157.24 327.02 161.31 320.16 165.37 313.28 169.74 306.7 174.37 300.42 178.89 294.12 183.63 288.1 188.55 282.38 193.31 276.6 198.23 271.1 203.29 265.86 208.14 260.53 213.13 255.43 218.25 250.55 223.16 245.53 228.21 240.68 233.39 236 238.4 231.13 243.56 226.38 248.89 221.73 254.07 216.85 259.45 212.03 265.03 207.29 270.5 202.28 276.2 197.33 282.13 192.44 287.99 187.31 294.1 182.27 300.47 177.35 306.79 172.24 313.39 167.31 320.26 162.61 327.09 157.84 334.2 153.39 341.59 149.33 348.96 145.35 356.62 141.86 364.55 138.95 372.47 136.27 380.69 134.27 389.19 133.01" stroke-dasharray="0 2" transform="rotate(40, 400, 400)" opacity="0.37"></path><path d="M394.32 143.63C402.56 142.74 410.92 142.63 419.36 143.27 427.83 144.28 436.41 146.02 445.08 148.45 453.79 151.2 462.61 154.58 471.51 158.54 480.46 162.72 489.5 167.4 498.61 172.52 507.76 177.75 516.95 183.33 526.16 189.21 535.37 195.1 544.55 201.21 553.65 207.51 562.67 213.73 571.54 220.1 580.17 226.57 588.62 232.91 596.73 239.34 604.4 245.84 611.75 252.19 618.55 258.62 624.67 265.12 630.34 271.47 635.24 277.91 639.26 284.45 642.72 290.85 645.23 297.38 646.76 304.04 647.7 310.59 647.66 317.31 646.64 324.19 645.16 331 642.8 338 639.65 345.2 636.3 352.35 632.36 359.72 627.96 367.32 623.73 374.89 619.33 382.71 614.9 390.76 611.04 398.81 607.43 407.11 604.18 415.66 601.84 424.21 600.08 432.81 598.9 441.44 598.67 450.08 598.97 458.75 599.72 467.41 601.26 476.06 603.07 484.7 605.03 493.28 607.48 501.84 609.84 510.31 612 518.64 614.3 526.91 616.18 535.01 617.53 542.87 618.75 550.6 619.29 558.04 619.09 565.12 618.58 572.01 617.27 578.48 615.16 584.44 612.65 590.14 609.34 595.29 605.28 599.81 600.84 604.02 595.7 607.57 589.93 610.42 583.86 612.95 577.23 614.79 570.14 615.92 562.82 616.8 555.13 617.05 547.12 616.69 538.98 616.24 530.6 615.31 522.05 613.98 513.44 612.79 504.7 611.37 495.9 609.82 487.07 608.68 478.21 607.59 469.35 606.66 460.49 606.36 451.64 606.37 442.84 606.72 434.04 607.84 425.29 609.36 416.61 611.26 407.92 613.9 399.49 616.75 391.32 619.72 383.13 623.16 375.19 626.51 367.48 629.65 359.74 632.93 352.21 635.77 344.9 638.08 337.53 640.23 330.35 641.68 323.36 642.37 316.28 642.68 309.37 642.14 302.61 640.75 295.74 638.89 289.01 636.16 282.42 632.61 275.69 628.6 269.09 623.82 262.6 618.35 255.99 612.5 249.49 606.04 243.11 599.07 236.62 591.83 230.26 584.16 224.06 576.17 217.77 568.01 211.65 559.6 205.75 551.01 199.82 542.35 194.13 533.56 188.73 524.71 183.37 515.85 178.34 506.96 173.7 498.07 169.16 489.21 165.06 480.36 161.43 471.56 157.98 462.79 155.06 454.08 152.69 445.43 150.56 436.81 149.01 428.25 148.09 419.78 147.43 411.32 147.39 402.93 148.01 394.65 148.86 386.36 150.33 378.36 152.35 370.64 154.55 362.92 157.25 355.49 160.41 348.34 163.66 341.18 167.3 334.3 171.31 327.71 175.3 321.1 179.59 314.76 184.15 308.71 188.61 302.62 193.3 296.8 198.16 291.24 202.88 285.62 207.76 280.24 212.78 275.1 217.62 269.85 222.58 264.8 227.67 259.95 232.56 254.95 237.59 250.11 242.74 245.41 247.72 240.51 252.84 235.73 258.11 231.03 263.23 226.12 268.54 221.27 274.02 216.49 279.39 211.47 284.96 206.51 290.75 201.63 296.46 196.54 302.4 191.55 308.58 186.68 314.7 181.67 321.08 176.85 327.71 172.26 334.31 167.63 341.17 163.31 348.31 159.38 355.42 155.54 362.8 152.19 370.47 149.38 378.13 146.8 386.08 144.86 394.31 143.63" stroke-dasharray="2 2" transform="rotate(43.63636363636364, 400, 400)" opacity="0.40"></path><path d="M399.68 154.26C407.64 153.38 415.72 153.24 423.89 153.8 432.08 154.71 440.37 156.32 448.75 158.58 457.16 161.14 465.65 164.31 474.22 168.03 482.82 171.98 491.48 176.41 500.17 181.27 508.88 186.25 517.6 191.6 526.29 197.25 534.96 202.92 543.55 208.84 552.01 214.96 560.37 221.02 568.53 227.24 576.41 233.59 584.1 239.83 591.41 246.18 598.26 252.61 604.8 258.9 610.77 265.29 616.09 271.74 620.99 278.07 625.15 284.48 628.49 290.97 631.33 297.35 633.31 303.84 634.38 310.44 634.96 316.94 634.65 323.58 633.48 330.36 631.92 337.08 629.6 343.96 626.59 351 623.43 358.01 619.76 365.2 615.7 372.59 611.82 379.95 607.78 387.53 603.71 395.31 600.17 403.08 596.84 411.07 593.82 419.27 591.6 427.48 589.87 435.71 588.65 443.93 588.28 452.16 588.37 460.39 588.85 468.57 590.05 476.75 591.5 484.88 593.09 492.91 595.15 500.92 597.16 508.8 599.01 516.52 601.04 524.17 602.72 531.61 603.96 538.79 605.14 545.85 605.73 552.59 605.69 558.96 604.93 568.03 599.35 583.48 594.54 589.65 588.57 594.82 573.1 601.65 563.85 603.31 557.32 604.02 550.39 604.18 543.12 603.82 535.71 603.41 528.04 602.6 520.15 601.46 512.19 600.47 504.06 599.31 495.82 598.04 487.56 597.16 479.21 596.35 470.82 595.66 462.43 595.57 454.02 595.73 445.61 596.19 437.2 597.34 428.8 598.83 420.44 600.63 412.07 603.1 403.93 605.75 396.01 608.49 388.07 611.66 380.34 614.74 372.83 617.63 365.28 620.67 357.92 623.32 350.74 625.51 343.52 627.59 336.46 629.04 329.56 629.82 322.59 630.3 315.76 630.02 309.07 628.96 302.29 627.51 295.63 625.26 289.09 622.26 282.45 618.84 275.91 614.71 269.49 609.92 262.96 604.77 256.54 599.03 250.25 592.78 243.87 586.27 237.62 579.32 231.54 572.01 225.39 564.53 219.42 556.77 213.67 548.79 207.91 540.73 202.39 532.5 197.17 524.18 191.99 515.82 187.15 507.39 182.69 498.95 178.34 490.5 174.41 482.05 170.95 473.63 167.66 465.23 164.88 456.86 162.64 448.55 160.63 440.26 159.18 432.02 158.34 423.87 157.74 415.73 157.74 407.67 158.38 399.7 159.24 391.73 160.69 384.03 162.67 376.62 164.83 369.2 167.47 362.05 170.56 355.18 173.73 348.29 177.3 341.67 181.21 335.32 185.12 328.94 189.34 322.83 193.8 316.97 198.2 311.06 202.81 305.4 207.61 299.97 212.28 294.47 217.11 289.19 222.08 284.11 226.88 278.93 231.82 273.92 236.87 269.08 241.75 264.09 246.75 259.24 251.87 254.51 256.82 249.6 261.91 244.78 267.13 240.05 272.21 235.12 277.46 230.25 282.86 225.45 288.15 220.44 293.62 215.5 299.29 210.65 304.87 205.62 310.67 200.69 316.69 195.91 322.64 191.01 328.83 186.31 335.26 181.85 341.65 177.36 348.29 173.2 355.19 169.41 362.07 165.72 369.21 162.5 376.62 159.8 384.02 157.33 391.7 155.46 399.67 154.26" stroke-dasharray="0 0" transform="rotate(47.27272727272727, 400, 400)" opacity="0.42"></path><path d="M405.05 164.89C412.73 164.02 420.52 163.85 428.39 164.34 436.27 165.16 444.24 166.62 452.28 168.72 460.34 171.09 468.47 174.04 476.64 177.53 484.83 181.23 493.06 185.41 501.28 190 509.5 194.73 517.69 199.81 525.81 205.2 533.89 210.64 541.85 216.34 549.63 222.24 557.3 228.11 564.73 234.16 571.85 240.34 578.77 246.45 585.29 252.68 591.35 258.99 597.11 265.2 602.31 271.51 606.88 277.88 611.07 284.15 614.56 290.5 617.28 296.92 619.58 303.25 621.09 309.67 621.78 316.19 622.06 322.62 621.55 329.17 620.27 335.84 618.69 342.45 616.44 349.2 613.59 356.09 610.64 362.93 607.25 369.94 603.52 377.11 599.97 384.26 596.29 391.59 592.57 399.08 589.33 406.57 586.26 414.25 583.45 422.09 581.35 429.94 579.67 437.77 578.42 445.58 577.93 453.39 577.83 461.15 578.07 468.85 578.96 476.54 580.07 484.14 581.32 491.61 583.01 499.06 584.67 506.35 586.21 513.45 587.96 520.48 589.42 527.27 590.51 533.79 591.89 543.23 591.76 560.05 590.02 567.24 587.27 573.64 578.17 583.46 571.91 586.79 564.75 589.26 547.7 591.28 538.04 591.01 531.36 590.68 524.38 590.02 517.15 589.07 509.85 588.3 502.34 587.38 494.69 586.38 487 585.76 479.19 585.19 471.31 584.74 463.41 584.82 455.45 585.12 447.46 585.67 439.47 586.84 431.45 588.29 423.43 590.01 415.41 592.31 407.56 594.76 399.91 597.27 392.24 600.18 384.75 603 377.43 605.65 370.09 608.46 362.91 610.92 355.88 612.97 348.82 614.96 341.89 616.39 335.11 617.23 328.26 617.83 321.54 617.75 314.94 616.98 308.26 615.87 301.69 614.05 295.24 611.53 288.69 608.66 282.25 605.12 275.92 600.96 269.51 596.47 263.21 591.42 257.03 585.86 250.79 580.05 244.68 573.8 238.74 567.19 232.77 560.4 226.97 553.3 221.4 545.96 215.83 538.52 210.51 530.89 205.48 523.13 200.51 515.32 195.87 507.41 191.6 499.45 187.46 491.47 183.72 483.47 180.43 475.47 177.32 467.47 174.69 459.49 172.59 451.56 170.7 443.63 169.36 435.75 168.59 427.95 168.05 420.14 168.1 412.41 168.74 404.76 169.61 397.11 171.03 389.72 172.97 382.6 175.08 375.47 177.65 368.6 180.65 361.98 183.75 355.35 187.22 348.96 191.02 342.83 194.85 336.66 198.96 330.73 203.33 325.03 207.64 319.28 212.17 313.75 216.88 308.43 221.49 303.03 226.25 297.82 231.16 292.8 235.92 287.66 240.81 282.68 245.82 277.85 250.67 272.87 255.64 268.01 260.72 263.26 265.65 258.35 270.71 253.52 275.88 248.76 280.93 243.83 286.12 238.96 291.45 234.17 296.67 229.19 302.07 224.3 307.63 219.5 313.11 214.54 318.79 209.71 324.66 205.03 330.47 200.27 336.49 195.7 342.74 191.38 348.94 187.06 355.38 183.05 362.07 179.42 368.72 175.88 375.62 172.8 382.78 170.22 389.93 167.85 397.35 166.05 405.03 164.89" stroke-dasharray="2 2" transform="rotate(50.909090909090914, 400, 400)" opacity="0.45"></path><path d="M410.2 175.52C417.59 174.67 425.07 174.46 432.61 174.89 440.15 175.61 447.77 176.95 455.44 178.87 463.11 181.06 470.83 183.8 478.56 187.04 486.3 190.49 494.04 194.4 501.74 198.72 509.43 203.18 517.05 207.99 524.56 213.11 532.01 218.29 539.31 223.73 546.4 229.38 553.37 235.04 560.07 240.88 566.43 246.86 572.6 252.8 578.37 258.86 583.67 265.02 588.69 271.11 593.17 277.29 597.05 283.55 600.6 289.72 603.49 295.97 605.68 302.29 607.5 308.53 608.61 314.86 608.99 321.27 609.03 327.61 608.37 334.05 607.04 340.58 605.48 347.06 603.33 353.66 600.65 360.37 597.93 367.05 594.82 373.86 591.41 380.8 588.19 387.72 584.84 394.79 581.45 401.99 578.51 409.18 575.69 416.52 573.08 424 571.11 431.47 569.48 438.9 568.21 446.27 567.62 453.64 567.35 460.94 567.37 468.14 567.98 475.32 568.78 482.39 569.7 489.31 571.05 496.19 572.37 502.89 573.61 509.38 575.06 515.8 576.28 521.98 577.2 527.86 578.43 536.35 578.47 551.33 577.08 557.65 574.84 563.26 567.15 571.77 561.77 574.62 555.56 576.74 540.53 578.49 531.9 578.29 525.91 578.07 519.6 577.56 513.02 576.81 506.37 576.26 499.49 575.58 492.43 574.84 485.32 574.45 478.07 574.11 470.7 573.87 463.31 574.11 455.83 574.53 448.27 575.16 440.72 576.34 433.1 577.75 425.45 579.38 417.79 581.53 410.27 583.78 402.9 586.08 395.53 588.74 388.29 591.31 381.2 593.72 374.08 596.29 367.1 598.56 360.25 600.47 353.37 602.34 346.6 603.73 339.95 604.59 333.25 605.27 326.66 605.35 320.18 604.81 313.63 604 307.18 602.55 300.84 600.46 294.43 598.07 288.11 595.06 281.91 591.48 275.64 587.6 269.49 583.19 263.46 578.29 257.39 573.16 251.46 567.6 245.69 561.66 239.91 555.55 234.32 549.12 228.94 542.43 223.6 535.63 218.49 528.61 213.68 521.44 208.94 514.2 204.52 506.85 200.46 499.41 196.53 491.94 193 484.42 189.89 476.88 186.96 469.33 184.5 461.78 182.53 454.25 180.78 446.72 179.54 439.22 178.85 431.78 178.38 424.33 178.46 416.94 179.11 409.63 179.97 402.31 181.37 395.23 183.26 388.39 185.3 381.55 187.8 374.94 190.7 368.57 193.7 362.17 197.07 356.01 200.76 350.07 204.48 344.09 208.48 338.33 212.73 332.77 216.94 327.17 221.37 321.75 225.98 316.52 230.5 311.22 235.19 306.08 240.01 301.09 244.72 296 249.55 291.05 254.5 286.22 259.31 281.26 264.24 276.41 269.27 271.65 274.17 266.74 279.18 261.91 284.31 257.16 289.32 252.25 294.46 247.4 299.72 242.64 304.89 237.73 310.2 232.89 315.67 228.17 321.06 223.32 326.62 218.6 332.36 214.05 338.04 209.43 343.91 205.02 349.99 200.86 356.02 196.71 362.27 192.87 368.74 189.4 375.18 186.03 381.85 183.08 388.76 180.62 395.66 178.36 402.8 176.64 410.19 175.52" stroke-dasharray="1 1" transform="rotate(54.54545454545455, 400, 400)" opacity="0.48"></path><path d="M414.94 186.14C422.02 185.31 429.16 185.09 436.34 185.45 443.53 186.08 450.76 187.28 458.02 189.04 465.27 191.04 472.54 193.57 479.8 196.57 487.05 199.77 494.27 203.41 501.42 207.44 508.54 211.62 515.56 216.14 522.44 220.97 529.25 225.87 535.88 231.03 542.27 236.42 548.54 241.83 554.52 247.42 560.16 253.17 565.61 258.9 570.66 264.76 575.24 270.73 579.58 276.64 583.41 282.66 586.67 288.75 589.63 294.79 591.99 300.9 593.72 307.08 595.15 313.2 595.93 319.4 596.06 325.66 595.92 331.87 595.16 338.17 593.82 344.54 592.3 350.87 590.28 357.3 587.79 363.81 585.3 370.3 582.47 376.89 579.37 383.58 576.47 390.26 573.44 397.05 570.37 403.94 567.7 410.82 565.13 417.82 562.71 424.91 560.86 432 559.29 439.02 558.02 445.94 557.33 452.87 556.92 459.69 556.75 466.39 557.11 473.07 557.63 479.61 558.25 485.97 559.27 492.3 560.28 498.44 561.21 504.34 562.86 512.97 565.1 528.66 565.39 535.58 563.66 547.19 555.64 559.83 551 562.3 545.62 564.17 532.43 565.79 524.76 565.7 519.41 565.6 513.74 565.26 507.79 564.72 501.77 564.37 495.49 563.92 489.01 563.43 482.49 563.25 475.79 563.12 468.94 563.07 462.08 563.45 455.08 563.98 447.98 564.67 440.88 565.85 433.68 567.22 426.41 568.75 419.14 570.75 411.97 572.82 404.91 574.91 397.85 577.34 390.89 579.66 384.04 581.84 377.18 584.19 370.43 586.26 363.77 588.01 357.1 589.76 350.52 591.08 344.04 591.94 337.52 592.66 331.09 592.86 324.75 592.51 318.37 591.94 312.08 590.79 305.89 589.08 299.64 587.11 293.49 584.58 287.45 581.51 281.36 578.2 275.39 574.38 269.55 570.09 263.68 565.6 257.95 560.68 252.4 555.4 246.84 549.95 241.48 544.17 236.33 538.13 231.23 531.97 226.37 525.58 221.79 519.01 217.29 512.37 213.11 505.58 209.28 498.69 205.57 491.76 202.25 484.75 199.34 477.7 196.6 470.63 194.31 463.53 192.48 456.43 190.86 449.33 189.73 442.23 189.11 435.17 188.7 428.1 188.82 421.07 189.48 414.09 190.34 407.11 191.69 400.35 193.52 393.8 195.5 387.24 197.91 380.89 200.71 374.75 203.6 368.6 206.85 362.64 210.41 356.88 214 351.09 217.88 345.49 221.99 340.06 226.09 334.59 230.39 329.28 234.88 324.14 239.31 318.92 243.9 313.84 248.62 308.9 253.25 303.87 258.01 298.95 262.88 294.14 267.63 289.21 272.5 284.38 277.47 279.63 282.32 274.75 287.28 269.95 292.35 265.22 297.31 260.36 302.38 255.57 307.58 250.87 312.68 246.04 317.92 241.3 323.29 236.68 328.59 231.96 334.04 227.38 339.65 222.97 345.21 218.52 350.94 214.28 356.84 210.29 362.71 206.33 368.77 202.67 375.03 199.36 381.26 196.16 387.7 193.36 394.35 191.02 400.99 188.87 407.85 187.23 414.93 186.14" stroke-dasharray="0 3" transform="rotate(58.18181818181819, 400, 400)" opacity="0.51"></path><path d="M419.06 196.77C425.81 195.96 432.59 195.71 439.39 196.01 446.2 196.55 453.02 197.64 459.83 199.23 466.64 201.05 473.44 203.36 480.19 206.12 486.92 209.07 493.6 212.44 500.17 216.18 506.71 220.06 513.12 224.29 519.36 228.81 525.52 233.41 531.49 238.28 537.19 243.37 542.78 248.5 548.07 253.82 553.02 259.3 557.79 264.78 562.16 270.4 566.1 276.14 569.81 281.84 573.04 287.65 575.75 293.55 578.21 299.4 580.12 305.33 581.46 311.33 582.55 317.28 583.07 323.31 583.01 329.39 582.74 335.44 581.94 341.55 580.62 347.73 579.18 353.88 577.3 360.11 575.02 366.4 572.76 372.67 570.2 379.02 567.41 385.44 564.81 391.85 562.09 398.34 559.33 404.9 556.92 411.46 554.57 418.09 552.34 424.79 550.61 431.48 549.1 438.08 547.83 444.56 547.08 451.03 546.55 457.38 546.21 463.58 546.48 472.78 548.03 490.21 549.03 498.35 550.28 506.15 551.94 520.2 552.1 526.35 547.15 542.16 535.04 551.59 529.55 552.55 523.48 553.19 509.39 553.2 501.49 552.77 496.07 552.63 490.38 552.4 484.47 552.13 478.51 552.16 472.36 552.21 466.03 552.33 459.68 552.83 453.18 553.45 446.55 554.19 439.91 555.36 433.15 556.68 426.29 558.12 419.42 559.98 412.62 561.87 405.9 563.77 399.17 565.96 392.52 568.06 385.95 570.02 379.37 572.13 372.86 574.01 366.44 575.6 360 577.21 353.64 578.45 347.36 579.28 341.06 580.02 334.83 580.29 328.68 580.08 322.5 579.71 316.4 578.82 310.4 577.42 304.36 575.81 298.41 573.7 292.56 571.09 286.7 568.28 280.94 565 275.32 561.28 269.69 557.37 264.2 553.06 258.88 548.39 253.58 543.58 248.47 538.44 243.58 533.02 238.74 527.49 234.14 521.72 229.82 515.75 225.59 509.71 221.66 503.51 218.06 497.17 214.59 490.8 211.49 484.32 208.79 477.77 206.24 471.2 204.12 464.57 202.44 457.92 200.95 451.27 199.92 444.6 199.38 437.93 199.04 431.26 199.19 424.61 199.85 417.98 200.69 411.35 202.01 404.9 203.77 398.64 205.67 392.37 207.98 386.29 210.67 380.38 213.44 374.46 216.56 368.71 219.98 363.14 223.44 357.53 227.17 352.08 231.13 346.79 235.09 341.46 239.26 336.26 243.61 331.2 247.92 326.08 252.38 321.08 256.99 316.19 261.52 311.22 266.17 306.35 270.94 301.58 275.62 296.7 280.4 291.91 285.29 287.2 290.08 282.38 294.97 277.63 299.95 272.96 304.85 268.18 309.85 263.47 314.96 258.85 319.99 254.14 325.14 249.52 330.41 245.03 335.61 240.46 340.95 236.05 346.43 231.8 351.85 227.54 357.43 223.48 363.17 219.68 368.86 215.91 374.73 212.43 380.77 209.3 386.78 206.27 392.98 203.63 399.36 201.41 405.73 199.38 412.3 197.82 419.05 196.77" stroke-dasharray="1 0" transform="rotate(61.81818181818181, 400, 400)" opacity="0.54"></path><path d="M422.39 207.4C428.79 206.61 435.2 206.35 441.6 206.59 448 207.05 454.38 208.01 460.73 209.44 473.42 212.93 485.89 218.18 497.91 224.94 509.77 232.24 520.96 240.77 531.17 250.26 540.93 259.94 549.41 270.37 556.29 281.3 562.42 292.19 566.7 303.5 568.95 315.07 570.4 326.52 569.89 338.26 567.47 350.18 564.75 362.01 560.65 374.1 555.53 386.36 553.22 392.48 550.79 398.66 548.31 404.88 546.15 411.09 544.02 417.35 541.98 423.64 540.36 429.94 538.92 436.11 537.67 442.14 536.86 448.16 536.23 454.04 535.75 459.76 536.01 471.14 536.56 481.78 537.09 491.48 538.48 500.99 539.22 509.41 538.99 516.55 538.06 526.12 528.24 537.77 519.14 540.03 512.17 541.2 503.8 541.45 494.23 541.01 484.44 541.31 473.62 541.46 462.01 541.65 456.18 542.25 450.16 542.94 444 543.72 437.83 544.88 431.52 546.14 425.07 547.49 418.63 549.21 412.22 550.93 405.85 552.64 399.48 554.62 393.16 556.5 386.89 558.24 374.35 562.16 362 565.04 349.94 566.64 337.81 568 325.92 567.65 314.39 565.52 302.79 562.75 291.54 558.14 280.8 551.88 270.1 544.99 259.99 536.63 250.72 527.09 241.68 517.15 233.63 506.28 226.82 494.77 220.52 483.1 215.63 470.96 212.4 458.6 211.05 452.4 210.13 446.17 209.66 439.91 209.38 433.66 209.56 427.39 210.21 421.12 211.04 414.85 212.31 408.73 214 402.77 215.82 396.8 218.03 390.98 220.58 385.32 225.96 373.94 232.57 363.12 240.15 352.86 247.75 342.43 256.14 332.44 265.1 322.9 273.84 313.06 283.09 303.53 292.71 294.35 302.02 284.79 311.74 275.5 321.81 266.6 331.61 257.39 341.87 248.63 352.57 240.55 363.09 232.43 374.18 225.22 385.81 219.22 391.6 216.37 397.54 213.88 403.64 211.8 409.73 209.88 415.97 208.4 422.38 207.4" stroke-dasharray="2 1" transform="rotate(65.45454545454545, 400, 400)" opacity="0.57"></path><path d="M424.79 218.03C436.86 216.7 448.85 217.3 460.6 219.68 472.32 222.79 483.73 227.56 494.59 233.74 505.28 240.43 515.25 248.31 524.21 257.13 532.76 266.17 540.07 275.95 545.87 286.26 551.05 296.59 554.55 307.34 556.24 318.37 557.32 329.33 556.67 340.56 554.39 351.94 551.93 363.26 548.28 374.79 543.73 386.41 539.84 398.02 535.7 409.76 531.61 421.52 529 433.28 526.91 444.48 525.36 454.98 525.23 465.43 525.31 475.1 525.37 483.84 526.24 492.42 526.57 499.95 526.1 506.29 525.05 514.84 516.27 525.4 508.23 527.65 502.11 528.95 494.69 529.48 486.12 529.41 477.35 530.06 467.57 530.54 456.95 531.02 446.26 532.71 434.84 534.67 422.82 536.87 410.81 540.31 398.8 543.6 386.94 546.52 375.07 550.01 363.32 552.58 351.81 554.03 340.27 555.35 328.93 555.17 317.92 553.43 306.89 551.2 296.21 547.33 286.04 541.94 275.95 536.04 266.45 528.76 257.77 520.34 249.34 511.56 241.87 501.84 235.58 491.43 229.77 480.86 225.3 469.76 222.38 458.33 220.1 446.88 219.46 435.18 220.58 423.39 222.35 411.6 225.72 400.26 230.46 389.44 235.57 378.58 241.85 368.15 249.06 358.2 256.33 348.1 264.36 338.36 272.98 329 281.44 319.4 290.39 310.07 299.72 301.07 308.81 291.77 318.29 282.75 328.09 274.13 337.67 265.28 347.65 256.91 358.01 249.22 368.22 241.54 378.91 234.75 390.04 229.13 401.11 223.9 412.71 220.11 424.78 218.03" stroke-dasharray="2 0" transform="rotate(69.0909090909091, 400, 400)" opacity="0.60"></path><path d="M426.17 228.66C437.47 227.37 448.58 227.84 459.37 229.94 470.12 232.7 480.46 236.99 490.19 242.59 499.76 248.67 508.56 255.88 516.36 263.99 523.81 272.35 530.07 281.45 534.93 291.08 539.29 300.77 542.14 310.9 543.4 321.3 544.19 331.68 543.5 342.32 541.4 353.08 539.22 363.82 536.01 374.72 532.01 385.65 528.61 396.59 524.94 407.58 521.24 418.51 518.81 429.44 516.73 439.76 515.04 449.36 514.58 458.92 514.25 467.69 513.89 475.55 514.24 486.67 512.22 503.41 508.86 508.86 504.16 513.14 488.29 517.32 477.32 518 469.48 518.95 460.66 519.73 450.99 520.46 441.26 522.23 430.76 524.17 419.63 526.24 408.5 529.37 397.28 532.31 386.14 534.86 375.01 537.93 363.93 540.19 353.05 541.47 342.16 542.7 331.45 542.63 321.04 541.19 310.66 539.4 300.62 536.14 291.08 531.53 281.66 526.5 272.82 520.2 264.76 512.8 256.97 505.11 250.1 496.48 244.34 487.12 239.04 477.63 234.99 467.55 232.38 457.07 230.35 446.55 229.83 435.71 230.95 424.69 232.65 413.66 235.84 402.97 240.31 392.68 245.12 382.35 251.04 372.36 257.85 362.75 264.75 353.02 272.4 343.59 280.61 334.48 288.73 325.18 297.35 316.13 306.32 307.38 315.12 298.41 324.3 289.73 333.76 281.45 343.06 273.03 352.71 265.08 362.67 257.82 372.53 250.61 382.77 244.27 393.36 239.02 403.91 234.15 414.87 230.61 426.17 228.66" stroke-dasharray="2 0" transform="rotate(72.72727272727273, 400, 400)" opacity="0.63"></path><path d="M426.47 239.28C436.97 238.04 447.19 238.39 457.01 240.23 466.78 242.65 476.08 246.47 484.73 251.5 493.23 256.97 500.94 263.51 507.69 270.9 514.13 278.55 519.47 286.92 523.53 295.81 527.19 304.81 529.52 314.24 530.46 323.94 531.07 333.67 530.39 343.64 528.5 353.73 526.62 363.81 523.85 374.01 520.37 384.22 517.43 394.42 514.21 404.64 510.87 414.73 508.61 424.82 506.57 434.28 504.79 443.03 504.06 451.74 503.38 459.68 502.64 466.76 502.37 476.79 499.64 491.91 496.35 496.95 492.02 501.06 477.8 505.65 467.98 506.78 460.98 507.98 453.04 509.01 444.27 509.95 435.45 511.78 425.87 513.68 415.62 515.61 405.38 518.45 395 521.04 384.63 523.24 374.28 525.93 363.94 527.88 353.75 528.96 343.58 530.07 333.56 530.05 323.84 528.85 314.17 527.39 304.83 524.65 295.98 520.7 287.27 516.43 279.12 510.99 271.73 504.53 264.61 497.82 258.35 490.21 253.13 481.87 248.34 473.4 244.71 464.31 242.4 454.76 240.61 445.18 240.21 435.21 241.32 424.97 242.94 414.73 245.94 404.7 250.12 394.97 254.62 385.22 260.16 375.71 266.54 366.5 273.04 357.21 280.26 348.14 288.02 339.36 295.75 330.43 303.96 321.72 312.52 313.31 320.97 304.73 329.76 296.45 338.83 288.59 347.77 280.63 357.03 273.16 366.54 266.36 375.97 259.65 385.71 253.76 395.71 248.91 405.69 244.4 415.96 241.12 426.47 239.28" stroke-dasharray="1 3" transform="rotate(76.36363636363636, 400, 400)" opacity="0.65"></path><path d="M425.67 249.91C435.34 248.71 444.67 248.96 453.53 250.55 462.36 252.64 470.65 256.01 478.28 260.48 485.78 265.35 492.5 271.21 498.29 277.88 503.85 284.8 508.38 292.41 511.77 300.53 514.86 308.77 516.79 317.45 517.49 326.4 517.99 335.4 517.38 344.63 515.74 353.98 514.16 363.34 511.8 372.8 508.8 382.23 506.3 391.67 503.49 401.09 500.51 410.34 498.42 419.6 496.44 428.23 494.61 436.17 493.65 444.08 492.69 451.26 491.64 457.64 490.81 466.7 487.37 480.48 484.09 485.21 480.01 489.22 467.13 494.23 458.31 495.75 452.04 497.16 444.91 498.4 436.99 499.5 429.02 501.35 420.32 503.19 410.97 504.98 401.62 507.54 392.09 509.81 382.53 511.69 373 514 363.45 515.65 354.02 516.54 344.63 517.5 335.38 517.48 326.4 516.44 317.5 515.24 308.91 512.92 300.8 509.53 292.84 505.9 285.42 501.22 278.71 495.6 272.27 489.78 266.63 483.1 261.96 475.71 257.67 468.2 254.45 460.07 252.44 451.43 250.89 442.77 250.6 433.66 251.68 424.21 253.23 414.77 256.02 405.44 259.9 396.32 264.08 387.18 269.22 378.2 275.15 369.46 281.21 360.65 287.95 352.03 295.23 343.64 302.5 335.15 310.24 326.87 318.33 318.87 326.35 310.77 334.7 302.95 343.3 295.56 351.81 288.12 360.61 281.16 369.6 274.86 378.54 268.66 387.72 263.24 397.08 258.78 406.43 254.64 415.99 251.62 425.67 249.91" stroke-dasharray="2 2" transform="rotate(80, 400, 400)" opacity="0.68"></path><path d="M423.81 260.54C432.64 259.4 441.07 259.55 449 260.9 456.9 262.68 464.24 265.61 470.92 269.54 477.49 273.82 483.32 279.02 488.28 284.96 493.06 291.13 496.91 297.97 499.75 305.29 502.37 312.75 503.98 320.62 504.55 328.77 504.99 336.99 504.49 345.44 503.11 353.99 501.82 362.57 499.86 371.23 497.32 379.86 495.21 388.51 492.78 397.1 490.14 405.52 488.23 413.95 486.33 421.78 484.48 428.96 483.36 436.11 482.17 442.6 480.87 448.35 479.57 456.56 475.47 469.22 472.14 473.72 468.23 477.67 456.43 483.05 448.48 484.91 442.87 486.49 436.47 487.87 429.34 489.09 422.18 490.94 414.34 492.71 405.87 494.35 397.39 496.64 388.73 498.61 380.02 500.19 371.34 502.15 362.62 503.52 354.01 504.21 345.44 505 337 504.95 328.82 504.02 320.73 502.99 312.94 501.01 305.6 498.08 298.42 494.99 291.75 490.97 285.74 486.09 279.98 481.06 274.96 475.23 270.84 468.71 267.05 462.11 264.24 454.87 262.51 447.12 261.19 439.34 261 431.09 262.05 422.46 263.5 413.82 266.09 405.22 269.65 396.75 273.49 388.26 278.21 379.88 283.67 371.66 289.26 363.41 295.5 355.29 302.24 347.39 309.01 339.41 316.23 331.62 323.78 324.11 331.3 316.54 339.14 309.26 347.2 302.38 355.21 295.51 363.47 289.1 371.88 283.31 380.26 277.65 388.83 272.7 397.5 268.65 406.17 264.88 414.98 262.12 423.81 260.54" stroke-dasharray="1 1" transform="rotate(83.63636363636364, 400, 400)" opacity="0.71"></path><path d="M420.96 271.17C428.94 270.09 436.49 270.16 443.52 271.28 450.53 272.78 456.98 275.29 462.79 278.7 468.52 282.41 473.54 286.95 477.78 292.17 481.89 297.61 485.17 303.65 487.56 310.16 489.81 316.81 491.19 323.86 491.69 331.17 492.12 338.56 491.75 346.18 490.63 353.9 489.63 361.66 488.03 369.5 485.92 377.3 484.17 385.12 482.1 392.89 479.77 400.49 478.04 408.09 476.24 415.14 474.41 421.6 472.5 430.97 468.65 446.54 466.33 452.69 463.99 458.23 456.8 466.45 451.69 469.33 445.9 472.14 430.81 476.7 421.56 478.74 415.15 480.54 408.12 482.22 400.52 483.73 392.91 485.75 385.12 487.44 377.28 488.75 369.46 490.38 361.61 491.48 353.85 491.98 346.14 492.6 338.55 492.49 331.21 491.63 323.96 490.73 317 489 310.46 486.46 304.07 483.81 298.16 480.35 292.86 476.12 287.78 471.78 283.38 466.72 279.79 461 276.49 455.22 274.06 448.83 272.61 441.93 271.51 435 271.41 427.59 272.42 419.78 273.77 411.96 276.14 404.11 279.38 396.32 282.87 388.53 287.16 380.78 292.12 373.17 297.22 365.53 302.92 357.99 309.08 350.64 315.3 343.25 321.95 336.03 328.91 329.08 335.87 322.1 343.12 315.4 350.58 309.1 358.01 302.82 365.66 296.99 373.42 291.74 381.18 286.62 389.07 282.16 397.02 278.51 404.97 275.11 412.98 272.62 420.96 271.17" stroke-dasharray="0 2" transform="rotate(87.27272727272728, 400, 400)" opacity="0.74"></path><path d="M417.25 281.8C424.37 280.79 431.05 280.78 437.23 281.71 446.2 283.99 461.15 293.08 466.93 299.55 470.45 304.25 473.26 309.52 475.3 315.22 477.26 321.04 478.48 327.24 478.94 333.71 479.4 340.24 479.18 347 478.32 353.87 477.58 360.77 476.32 367.76 474.59 374.72 473.17 381.7 471.43 388.63 469.4 395.42 467.85 402.21 466.17 408.51 464.4 414.29 462.37 422.69 458.06 436.77 455.51 442.43 449.39 451.6 435.69 461.5 429.2 463.8 424.66 465.56 419.53 467.1 413.85 468.43 408.15 470.17 401.9 471.74 395.15 473.1 388.39 474.87 381.47 476.3 374.5 477.36 367.56 478.7 360.59 479.54 353.71 479.87 346.88 480.31 340.17 480.13 333.69 479.31 327.29 478.48 321.17 476.95 315.44 474.73 307.27 470.95 293.79 459.86 288.82 452.69 286 447.66 283.94 442.07 282.75 435.97 281.84 429.86 281.83 423.27 282.79 416.27 284.03 409.27 286.17 402.2 289.09 395.14 292.22 388.08 296.07 381.03 300.52 374.07 305.1 367.1 310.23 360.21 315.8 353.48 321.42 346.74 327.45 340.16 333.77 333.82 340.1 327.49 346.71 321.42 353.5 315.73 360.3 310.09 367.27 304.86 374.33 300.16 381.4 295.59 388.57 291.62 395.75 288.37 402.93 285.34 410.13 283.11 417.25 281.8" stroke-dasharray="2 0" transform="rotate(90.9090909090909, 400, 400)" opacity="0.77"></path><path d="M412.83 292.42C425.35 290.83 436.15 292.67 444.82 297.34 453.31 302.84 459.49 310.83 463.08 320.51 466.5 330.63 467.51 342.07 466.18 354.04 465.32 366.14 462.86 378.56 459.03 390.54 456.67 402.52 453.58 412.85 449.97 421.28 447.51 429.75 443.91 436.48 439.03 441.42 434.56 446.75 428.24 450.77 420.1 453.53 411.96 457.33 401.83 460.39 389.98 462.47 378.12 465.84 365.77 467.69 353.74 467.89 341.89 468.53 330.58 466.89 320.62 462.99 311.12 458.98 303.31 452.53 297.95 443.93 293.41 435.21 291.62 424.47 293.15 412.1 295.64 399.73 301.14 386.97 308.87 374.48 317.08 361.99 327.18 349.74 338.4 338.4 349.75 327.14 362.08 316.93 374.7 308.58 387.36 300.67 400.3 295.01 412.83 292.42" stroke-dasharray="0 2" transform="rotate(94.54545454545455, 400, 400)" opacity="0.80"></path><path d="M407.87 303.05C418.7 301.57 427.95 303 435.32 306.84 442.58 311.33 447.86 317.97 450.97 326.12 454.03 334.62 455.1 344.33 454.22 354.58 453.76 364.94 451.87 375.65 448.67 386.06 446.56 396.46 443.63 405.54 440.1 413.06 437.46 420.64 433.79 426.83 429.07 431.55 424.71 436.62 418.87 440.6 411.59 443.44 404.33 447.09 395.47 449.97 385.22 451.84 374.97 454.68 364.37 456.1 354.11 456.04 344 456.37 334.42 454.79 326.06 451.31 318.08 447.82 311.58 442.28 307.2 434.89 303.46 427.42 302.07 418.17 303.52 407.42 305.72 396.67 310.5 385.5 317.2 374.52 324.32 363.57 333.1 352.82 342.88 342.89 352.82 333.08 363.62 324.22 374.66 317.01 385.75 310.19 397.04 305.3 407.87 303.05" stroke-dasharray="1 3" transform="rotate(98.18181818181819, 400, 400)" opacity="0.83"></path><path d="M402.59 313.68C411.76 312.33 419.55 313.4 425.74 316.47 431.87 320.03 436.36 325.4 439.09 332.07 441.83 339.02 442.95 347.05 442.46 355.6 442.32 364.25 440.92 373.27 438.3 382.15 436.46 391.01 433.77 398.86 430.44 405.49 427.77 412.17 424.18 417.78 419.72 422.21 415.56 426.92 410.23 430.73 403.8 433.54 397.41 436.93 389.77 439.57 381.07 441.21 372.37 443.56 363.49 444.59 354.96 444.33 346.55 444.4 338.65 442.87 331.82 439.79 325.29 436.75 320.03 432.01 316.57 425.74 313.58 419.43 312.56 411.59 313.89 402.44 315.79 393.29 319.85 383.75 325.52 374.35 331.53 364.98 338.97 355.8 347.28 347.35 355.74 339.01 364.95 331.52 374.35 325.46 383.81 319.72 393.42 315.6 402.59 313.68" stroke-dasharray="0 1" transform="rotate(101.81818181818183, 400, 400)" opacity="0.86"></path><path d="M397.2 324.31C407.94 323.5 423.22 331.05 427.49 338.44 429.91 343.92 431.06 350.34 430.9 357.26 430.99 364.24 430.02 371.62 427.93 378.97 426.38 386.33 423.99 392.95 420.98 398.66 416.73 406.89 404.77 419.41 396.84 423.81 391.33 426.85 384.9 429.19 377.71 430.59 370.52 432.47 363.29 433.17 356.43 432.78 346.5 431.9 330.76 423.85 326.08 416.64 323.78 411.4 323.07 404.92 324.26 397.36 325.85 389.79 329.19 381.89 333.84 374.12 338.75 366.37 344.84 358.8 351.66 351.85 358.61 345.01 366.2 338.89 373.94 333.95 381.75 329.26 389.66 325.9 397.2 324.31" stroke-dasharray="3 0" transform="rotate(105.45454545454545, 400, 400)" opacity="0.88"></path><path d="M391.93 334.93C403.84 333.22 412.24 337.39 416.27 345.25 420.5 353.63 421.06 364.94 417.56 376.67 415.41 388.4 410.08 398.26 402.86 405.16 396.24 412.61 386.7 418 375.27 419.96 363.84 423.13 352.77 422.11 344.57 417.48 336.91 413.06 332.88 404.39 334.62 392.38 337.45 380.37 345.53 367.43 356.11 356.46 367.08 345.84 380.01 337.72 391.93 334.93" stroke-dasharray="1 1" transform="rotate(109.0909090909091, 400, 400)" opacity="0.91"></path><path d="M386.99 345.56C395.81 344.14 402.19 346.97 405.47 352.54 408.9 358.39 409.64 366.55 407.2 375.33 405.49 384.11 401.15 391.82 395.34 397.46 389.88 403.4 382.39 407.76 373.85 409.33 365.31 411.57 357.35 410.53 351.65 406.82 346.25 403.27 343.53 396.67 344.99 387.72 347.07 378.78 352.97 369.26 360.7 361.26 368.68 353.5 378.16 347.59 386.99 345.56" stroke-dasharray="1 2" transform="rotate(112.72727272727273, 400, 400)" opacity="0.94"></path><path d="M382.58 356.19C394.23 354.41 400.15 363.31 396.83 375.01 394.77 386.71 384.89 396.8 373.52 398.7 362.13 401.78 353.51 395.42 355.36 383.57 358.35 371.71 370.93 359.07 382.58 356.19" stroke-dasharray="2 3" transform="rotate(116.36363636363637, 400, 400)" opacity="0.97"></path></g></svg>