<svg xmlns="http://www.w3.org/2000/svg" version="1.1" xmlns:xlink="http://www.w3.org/1999/xlink" xmlns:svgjs="http://svgjs.dev/svgjs" viewBox="0 0 800 800"><g stroke-width="2" stroke="hsl(0, 0%, 0%)" fill="none" stroke-linecap="round"><path d="M386.09 15.16C392.33 15.03 398.45 15.22 404.44 15.73 410.43 16.4 416.3 17.37 422.03 18.65 430.55 20.9 446.9 26.85 454.73 30.45 462.42 34.31 477.16 42.84 484.23 47.39 491.21 51.96 504.71 61.28 511.29 65.96 517.88 70.48 531.02 79.36 537.64 83.7 544.45 87.84 558.59 95.94 566 99.93 571.17 102.49 576.47 105.09 581.93 107.72 587.6 110.28 593.45 112.89 599.49 115.57 605.76 118.19 612.23 120.9 618.91 123.7 625.82 126.48 632.92 129.36 640.22 132.36 647.72 135.36 655.39 138.49 663.22 141.75 671.18 145.03 679.25 148.46 687.39 152.03 695.58 155.64 703.78 159.4 711.93 163.32 720.02 167.28 727.97 171.4 735.72 175.67 743.29 179.99 750.55 184.47 757.46 189.09 764.03 193.76 770.14 198.58 775.73 203.54 780.85 208.54 785.36 213.68 789.21 218.94 793.77 226.96 798.28 243.6 798.16 252.18 797.23 257.97 795.56 263.85 793.19 269.79 790.33 275.76 786.85 281.79 782.81 287.88 778.47 293.98 773.71 300.14 768.61 306.33 763.46 312.54 758.14 318.77 752.75 325.03 747.59 331.3 742.55 337.59 737.73 343.88 733.4 350.18 729.45 356.48 725.98 362.78 723.22 369.08 721.06 375.37 719.54 381.65 718.85 387.93 718.87 394.11 719.55 400.2 721.05 406.29 723.16 412.29 725.83 418.18 729.16 424.08 732.92 429.88 737.03 435.58 741.59 441.29 746.32 446.9 751.13 452.42 756.13 457.94 761.03 463.38 765.74 468.73 770.38 474.1 774.66 479.39 778.52 484.62 783.57 492.46 789.99 507.94 791.12 515.61 790.7 523.35 785.34 538.92 780.47 546.8 776.47 552.17 771.84 557.57 766.64 563.03 761.01 568.61 754.88 574.25 748.31 579.98 741.43 585.84 734.21 591.78 726.7 597.82 719.01 604.01 711.12 610.29 703.09 616.67 695 623.18 686.85 629.79 678.68 636.49 670.56 643.3 662.47 650.18 654.48 657.11 646.59 664.12 638.83 671.15 631.2 678.18 623.75 685.22 616.46 692.22 609.34 699.14 602.41 706 595.65 712.72 589.08 719.27 582.69 725.67 576.48 731.83 570.41 737.7 564.54 743.34 558.79 748.63 553.18 753.53 547.72 758.11 542.36 762.24 537.09 765.89 529.4 770.53 514.41 776.52 507.03 777.81 499.74 777.96 485.1 775.15 477.68 772.35 470.24 768.85 454.96 760.29 447.1 755.58 441.83 752.53 436.46 749.51 430.98 746.56 425.5 743.94 419.91 741.51 414.22 739.35 408.52 737.65 402.71 736.31 396.79 735.34 390.87 734.96 384.85 735 378.73 735.48 372.6 736.55 366.45 738.03 360.29 739.89 354.13 742.25 347.97 744.89 341.8 747.76 335.64 750.98 329.49 754.32 323.35 757.69 317.23 761.23 311.13 764.67 305.06 767.96 299.01 771.22 293 774.19 287.05 776.83 281.12 779.26 275.25 781.26 269.44 782.78 260.82 784.28 244.04 783.88 235.92 781.91 230.58 779.97 225.34 777.46 220.21 774.4 215.13 770.93 210.17 766.95 205.32 762.5 200.52 757.7 195.85 752.5 191.3 746.93 186.79 741.11 182.41 734.99 178.15 728.62 173.93 722.1 169.84 715.4 165.86 708.57 161.91 701.68 158.08 694.72 154.37 687.72 150.66 680.75 147.06 673.8 143.57 666.88 140.06 660.06 136.65 653.31 133.33 646.65 129.98 640.13 126.71 633.71 123.52 627.42 120.28 621.28 117.1 615.26 113.99 609.36 110.81 603.63 107.69 598.01 104.63 592.49 101.49 587.13 98.4 581.86 95.36 576.67 90.71 569.11 81.55 554.43 77.07 547.23 72.55 540.16 63.83 526.04 59.66 518.92 55.54 511.82 47.89 497.28 44.39 489.82 41.04 482.28 35.16 466.68 32.66 458.61 30.37 450.43 26.76 433.48 25.44 424.71 24.67 418.82 24.08 412.82 23.69 406.7 23.34 400.58 23.18 394.35 23.21 388.01 23.29 381.67 23.56 375.3 24.02 368.91 24.52 362.52 25.21 356.12 26.08 349.7 26.99 343.29 28.07 336.87 29.34 330.45 30.63 324.05 32.09 317.65 33.73 311.27 35.37 304.9 37.18 298.56 39.15 292.25 41.11 285.96 43.22 279.71 45.47 273.5 47.7 267.33 50.06 261.2 52.54 255.15 54.98 249.13 57.53 243.18 60.18 237.32 62.78 231.5 65.46 225.78 68.22 220.15 70.92 214.58 73.68 209.12 76.52 203.78 80.69 195.93 89.2 180.99 93.54 173.94 97.84 167.14 106.64 154.45 111.18 148.57 115.72 142.94 125.21 132.59 130.18 127.84 135.26 123.3 146 114.92 151.7 111.05 157.58 107.26 170.07 100.07 176.7 96.62 183.53 93.1 197.96 86.09 205.53 82.55 210.68 80.07 215.95 77.59 221.33 75.11 226.77 72.5 232.31 69.88 237.95 67.27 243.64 64.51 249.43 61.77 255.29 59.03 261.19 56.17 267.17 53.34 273.21 50.55 279.29 47.66 285.42 44.84 291.6 42.09 297.81 39.3 304.06 36.61 310.33 34.05 316.62 31.49 322.94 29.09 329.26 26.87 335.6 24.7 341.94 22.75 348.28 21.03 354.62 19.42 360.95 18.07 367.26 17.01 373.57 16.08 379.84 15.47 386.08 15.16" stroke-dasharray="1 1" transform="rotate(0, 400, 400)" opacity="0.05"></path><path d="M381.06 25.76C389.97 25.71 407.26 27.4 415.63 29.11 423.87 31.3 439.77 37.11 447.44 40.64 455 44.44 469.61 52.84 476.69 57.35 483.71 61.9 497.47 71.2 504.26 75.89 511.11 80.45 524.9 89.43 531.91 93.83 539.15 98.03 554.21 106.26 562.11 110.3 573.25 115.38 584.98 120.58 597.38 125.97 610.57 131.1 624.47 136.54 639.01 142.36 654.15 148.1 669.71 154.33 685.45 161.07 701.2 167.89 716.58 175.29 731.2 183.26 738.19 187.3 744.85 191.48 751.13 195.8 757.06 200.17 762.52 204.68 767.45 209.31 773.87 216.4 782.76 231.25 785.08 238.99 785.86 246.89 783.07 263.22 779.62 271.61 776.69 277.25 773.21 282.97 769.22 288.74 764.99 294.54 760.4 300.39 755.51 306.28 750.6 312.19 745.55 318.14 740.47 324.12 735.61 330.11 730.87 336.12 726.35 342.15 722.3 348.19 718.61 354.24 715.36 360.3 712.78 366.36 710.74 372.43 709.3 378.49 708.63 384.55 708.6 390.54 709.2 396.45 710.55 402.36 712.47 408.19 714.9 413.94 717.96 419.69 721.43 425.36 725.22 430.95 729.46 436.55 733.87 442.08 738.37 447.53 743.08 452.99 747.72 458.38 752.21 463.71 756.66 469.06 760.82 474.35 764.6 479.6 769.67 487.49 776.55 503.16 778.13 510.99 778.31 518.9 774.48 534.88 770.51 542.99 767.15 548.51 763.18 554.08 758.65 559.7 753.69 565.43 748.24 571.23 742.33 577.11 729.56 589.2 715.49 601.63 700.53 614.38 685.13 627.55 669.44 640.97 653.76 654.52 638.34 668.22 623.29 681.8 608.75 695.02 594.81 707.88 581.47 719.96 568.72 730.95 562.59 736.09 556.59 740.87 550.71 745.26 544.98 749.33 539.36 752.97 533.83 756.13 525.75 760.1 510.08 764.91 502.4 765.74 494.85 765.54 479.82 762.31 472.28 759.46 464.75 756.02 449.45 747.8 441.64 743.35 436.43 740.5 431.13 737.68 425.75 734.95 417.65 731.41 401.01 726.15 392.48 724.68 386.75 724.35 380.95 724.41 375.06 724.89 369.17 725.91 363.28 727.31 357.38 729.05 351.48 731.26 345.59 733.74 339.71 736.43 333.84 739.45 327.98 742.59 322.15 745.77 316.33 749.12 310.54 752.39 304.79 755.53 299.06 758.67 293.38 761.55 287.75 764.14 279.37 767.57 263.01 771.88 255.05 772.58 247.23 772.2 232.11 768.11 224.84 764.43 220.07 761.42 215.41 757.91 210.87 753.94 206.36 749.64 201.96 744.92 197.69 739.83 193.45 734.49 189.32 728.82 185.32 722.89 177.36 710.54 169.86 697.48 162.8 684.01 155.71 670.52 148.99 657 142.63 643.65 136.11 630.72 129.84 618.12 123.83 605.92 117.54 594.29 111.44 583.03 105.54 572.13 102.46 566.87 99.43 561.67 96.46 556.53 91.9 549 82.99 534.22 78.65 526.92 74.33 519.7 66.08 505.22 62.2 497.9 58.42 490.57 51.54 475.6 48.48 467.92 45.6 460.18 40.74 444.22 38.77 436.01 37.05 427.69 34.62 410.54 33.91 401.72 33.56 395.8 33.41 389.78 33.45 383.67 33.55 377.56 33.84 371.43 34.32 365.28 34.86 359.14 35.58 352.99 36.48 346.83 37.43 340.68 38.56 334.53 39.86 328.4 41.19 322.27 42.69 316.16 44.36 310.07 46.04 304 47.88 297.95 49.87 291.95 51.85 285.96 53.98 280.02 56.24 274.14 58.48 268.28 60.84 262.49 63.31 256.76 65.75 251.07 68.29 245.46 70.91 239.94 73.49 234.46 76.15 229.08 78.87 223.8 82.91 216.01 91.16 201.11 95.37 194.03 98.12 189.41 100.92 184.93 103.77 180.6 109.25 172.11 114.96 164.22 120.92 156.97 126.66 149.89 132.74 143.42 139.16 137.53 145.52 131.7 152.32 126.37 159.56 121.48 166.88 116.45 174.72 111.73 183.05 107.26 189.46 103.73 202.97 96.65 210.08 93.06 217.37 89.28 232.59 81.53 240.5 77.55 245.85 74.77 251.29 72 256.81 69.24 262.37 66.37 268.01 63.54 273.71 60.74 279.45 57.86 285.25 55.05 291.1 52.31 296.97 49.54 302.89 46.88 308.84 44.35 314.81 41.82 320.81 39.45 326.82 37.26 332.85 35.14 338.89 33.22 344.92 31.53 350.97 29.95 357.01 28.62 363.03 27.58 369.06 26.67 375.07 26.06 381.05 25.76" stroke-dasharray="2 1" transform="rotate(3.0606060606060606, 400, 400)" opacity="0.08"></path><path d="M376.87 36.35C385.43 36.29 402.1 37.92 410.2 39.57 418.2 41.7 433.75 47.36 441.29 50.8 451.32 55.7 461.03 61.23 470.46 67.25 480.01 73.16 489.39 79.36 498.68 85.73 508.23 91.72 517.84 97.77 527.61 103.83 537.85 109.4 548.42 114.97 559.43 120.56 571.07 125.71 583.26 130.95 596.06 136.34 609.51 141.43 623.53 146.79 638.04 152.46 652.97 158 668.12 163.97 683.25 170.4 698.21 176.85 712.63 183.82 726.14 191.31 738.65 198.92 749.62 207.06 758.64 215.72 765.9 224.52 770.75 233.81 772.99 243.54 773.2 253.39 770.83 263.65 766 274.24 759.76 284.93 751.75 295.9 742.47 307.1 737.81 312.71 733.04 318.38 728.24 324.08 723.68 329.8 719.25 335.55 715.02 341.33 711.24 347.11 707.79 352.92 704.76 358.75 702.34 364.58 700.42 370.43 699.06 376.29 698.38 385.05 700.94 402.27 704.01 410.72 706.82 416.34 710 421.9 713.49 427.4 717.41 432.9 721.51 438.35 725.71 443.75 734.68 454.58 743.2 465.23 750.7 475.74 757.46 486.38 762.29 496.95 764.91 507.51 765.79 518.3 764.14 529.18 760.03 540.2 754.04 551.56 745.83 563.14 735.69 574.98 724.21 587.21 711.34 599.71 697.46 612.46 682.99 625.51 668.06 638.7 652.96 651.89 637.93 665.11 623.09 678.07 608.61 690.54 594.58 702.57 581.02 713.72 567.99 723.73 555.5 732.75 543.48 740.25 531.88 746 520.74 750.41 509.89 752.93 499.25 753.49 488.91 752.83 478.63 750.46 468.35 746.58 458.22 742.18 447.97 736.92 437.56 731.19 429.75 727.22 413.87 720.13 405.78 717.28 397.62 715.34 380.98 713.79 372.51 714.29 366.84 715.27 361.17 716.58 355.52 718.21 349.87 720.29 344.24 722.6 338.62 725.12 333.02 727.96 327.44 730.9 321.9 733.89 316.37 737.05 310.88 740.15 305.44 743.14 294.6 749.11 283.98 754.01 273.65 757.52 263.42 760.04 253.51 760.66 243.99 759.31 234.58 756.5 225.57 751.68 217.01 745.01 208.54 737.05 200.51 727.55 192.93 716.8 185.39 705.3 178.25 692.98 171.53 680.14 164.73 667.15 158.26 653.99 152.1 640.87 145.76 628.02 139.64 615.4 133.75 603.09 127.56 591.24 121.55 579.71 115.7 568.51 109.54 557.77 103.56 547.26 97.79 536.93 91.76 526.95 86.01 517.02 80.6 507.07 75.06 497.34 69.95 487.47 65.33 477.43 60.75 467.49 56.75 457.29 53.4 446.8 51.05 438.91 47.31 422.73 45.94 414.43 44.85 406.05 43.71 388.86 43.69 380.06 43.8 374.16 44.11 368.26 44.62 362.36 45.18 356.45 45.93 350.55 46.86 344.66 47.84 338.77 49 332.89 50.33 327.03 51.7 321.18 53.23 315.35 54.93 309.56 58.36 298.01 62.38 286.63 66.92 275.48 71.4 264.43 76.31 253.66 81.58 243.25 86.65 232.99 92 223.14 97.58 213.77 102.88 204.58 108.37 195.9 114.04 187.79 119.41 179.87 124.99 172.51 130.79 165.74 136.35 159.1 142.21 153 148.38 147.43 154.45 141.86 160.91 136.71 167.78 131.96 174.68 127.02 182.05 122.34 189.88 117.85 197.84 112.99 206.29 108.21 215.2 103.47 224.26 98.23 233.78 92.98 243.69 87.74 253.76 82.02 264.19 76.37 274.91 70.86 285.74 65.08 296.83 59.61 308.07 54.61 313.73 52.12 319.41 49.79 325.12 47.64 330.84 45.55 336.58 43.67 342.33 42.01 350.97 39.82 368.25 36.95 376.86 36.35" stroke-dasharray="1 3" transform="rotate(6.121212121212121, 400, 400)" opacity="0.11"></path><path d="M373.71 46.94C384.73 46.81 395.48 47.86 405.93 50.03 416.38 52.73 426.55 56.41 436.45 60.94 446.38 65.73 456.11 71.16 465.66 77.08 475.34 82.94 484.95 89.1 494.55 95.45 504.43 101.47 514.44 107.57 524.67 113.69 535.34 119.35 546.37 125.01 557.82 130.68 569.82 135.92 582.33 141.22 595.34 146.64 608.88 151.73 622.86 157.04 637.16 162.62 651.7 168.02 666.3 173.79 680.68 179.96 694.75 186.1 708.14 192.71 720.49 199.8 731.79 206.94 741.5 214.6 749.29 222.73 755.4 230.97 759.23 239.69 760.61 248.83 760.16 258.08 757.35 267.74 752.34 277.74 746.13 287.82 738.36 298.2 729.5 308.85 720.77 319.53 711.99 330.43 703.73 341.5 697.16 352.59 692.06 363.81 688.82 375.14 688.23 386.48 689.75 397.64 693.16 408.63 698.79 419.62 705.62 430.46 713.13 441.14 721.54 451.87 729.61 462.51 736.84 473.06 743.5 483.74 748.47 494.42 751.48 505.14 752.97 516.07 752.15 527.12 749.04 538.32 744.21 549.82 737.23 561.53 728.37 573.47 718.17 585.7 706.53 598.16 693.78 610.76 680.34 623.56 666.29 636.39 651.9 649.11 637.43 661.73 622.98 673.99 608.73 685.66 594.78 696.8 581.19 707.01 568.03 716.03 555.3 724.08 543 730.63 531.1 735.51 519.61 739.14 508.43 741.01 497.49 741.09 486.85 740.09 476.34 737.56 465.89 733.69 455.61 729.44 445.3 724.45 434.91 719.07 424.59 714.35 414.13 709.97 403.52 706.29 392.91 704.19 382.13 703.29 371.18 703.7 360.23 706.02 349.37 709.48 338.65 713.84 327.95 719.41 317.41 725.19 307.09 730.79 296.81 736.5 286.78 741.28 277.05 744.83 267.4 747.52 258.07 748.5 249.13 747.67 240.26 745.53 231.79 741.5 223.74 735.7 215.74 728.67 208.15 720.12 200.97 710.29 193.79 699.68 186.98 688.17 180.53 676.04 173.97 663.64 167.71 650.96 161.72 638.18 155.51 625.55 149.51 613.04 143.7 600.74 137.59 588.8 131.64 577.12 125.84 565.73 119.73 554.73 113.78 543.96 108.04 533.38 102.05 523.12 96.32 512.96 90.91 502.84 85.39 492.93 80.29 482.96 75.66 472.88 71.08 462.91 67.06 452.76 63.68 442.39 60.46 432.07 57.94 421.49 56.17 410.65 54.63 399.82 53.88 388.71 53.93 377.34 54.25 365.97 55.36 354.61 57.22 343.33 59.28 332.06 62.03 320.89 65.43 309.87 68.92 298.9 72.97 288.13 77.52 277.61 82.01 267.18 86.92 257.06 92.16 247.3 97.21 237.68 102.53 228.47 108.07 219.73 113.32 211.14 118.75 203.05 124.35 195.5 129.63 188.09 135.11 181.2 140.78 174.86 146.19 168.59 151.87 162.81 157.82 157.49 163.64 152.13 169.81 147.13 176.34 142.47 182.86 137.58 189.82 132.89 197.2 128.37 204.65 123.45 212.57 118.59 220.93 113.76 229.4 108.45 238.31 103.13 247.61 97.82 257.03 92.08 266.82 86.41 276.9 80.91 287.09 75.18 297.54 69.77 308.18 64.83 318.88 59.98 329.74 55.82 340.68 52.49 351.65 49.58 362.68 47.69 373.7 46.94" stroke-dasharray="2 1" transform="rotate(9.181818181818182, 400, 400)" opacity="0.14"></path><path d="M371.72 57.53C382.34 57.39 392.75 58.4 402.95 60.48 413.15 63.09 423.17 66.65 433 71.05 442.88 75.73 452.65 81.04 462.32 86.86 472.14 92.64 481.97 98.75 491.87 105.07 502.03 111.1 512.39 117.23 523 123.39 534 129.14 545.36 134.89 557.12 140.65 569.34 145.98 582 151.36 595.07 156.82 608.52 161.95 622.28 167.25 636.2 172.77 650.22 178.09 664.12 183.71 677.65 189.68 690.75 195.58 703.05 201.9 714.22 208.64 724.31 215.4 732.81 222.62 739.43 230.29 744.46 238.04 747.35 246.23 747.96 254.85 746.94 263.54 743.79 272.64 738.66 282.09 732.52 291.6 725.03 301.44 716.6 311.55 708.39 321.7 700.18 332.11 692.48 342.72 686.37 353.33 681.63 364.14 678.58 375.11 677.98 386.07 679.3 396.94 682.35 407.69 687.48 418.45 693.73 429.13 700.66 439.71 708.5 450.35 716.11 460.95 723.02 471.53 729.53 482.23 734.58 492.97 737.88 503.79 739.88 514.79 739.79 525.94 737.58 537.24 733.8 548.78 728 560.51 720.35 572.41 711.42 584.54 701.01 596.81 689.42 609.15 677.08 621.58 664 633.93 650.44 646.07 636.66 658.01 622.76 669.49 608.9 680.3 595.22 690.53 581.76 699.79 568.63 707.84 555.84 714.95 543.4 720.6 531.33 724.67 519.6 727.6 508.18 728.89 497.03 728.55 486.15 727.28 475.44 724.64 464.87 720.83 454.46 716.75 444.08 712.04 433.71 707.03 423.42 702.67 413.07 698.67 402.64 695.32 392.24 693.46 381.73 692.68 371.14 693.11 360.54 695.3 350.1 698.53 339.85 702.58 329.6 707.78 319.56 713.2 309.77 718.47 300.01 723.92 290.52 728.56 281.34 732.1 272.21 734.93 263.42 736.21 255 735.84 246.62 734.29 238.62 730.99 231.02 726.01 223.43 719.88 216.22 712.26 209.4 703.35 202.52 693.65 195.97 682.99 189.75 671.62 183.39 659.9 177.29 647.79 171.42 635.47 165.32 623.19 159.4 610.91 153.65 598.75 147.6 586.84 141.68 575.13 135.9 563.65 129.82 552.5 123.9 541.56 118.18 530.81 112.22 520.35 106.51 510 101.12 499.74 95.62 489.68 90.52 479.61 85.9 469.5 81.32 459.5 77.3 449.38 73.91 439.13 70.69 428.93 68.16 418.53 66.38 407.95 64.85 397.38 64.1 386.6 64.17 375.62 64.52 364.65 65.66 353.75 67.55 342.95 69.65 332.18 72.45 321.54 75.87 311.08 79.39 300.67 83.46 290.49 88.02 280.58 92.53 270.75 97.43 261.24 102.66 252.11 107.7 243.09 112.99 234.48 118.5 226.32 123.71 218.29 129.1 210.73 134.64 203.68 139.87 196.72 145.27 190.25 150.84 184.27 156.14 178.31 161.67 172.78 167.44 167.67 173.05 162.46 178.97 157.56 185.22 152.94 191.41 148.07 198 143.36 204.98 138.77 211.99 133.79 219.42 128.85 227.27 123.93 235.2 118.54 243.55 113.16 252.27 107.8 261.09 102.04 270.27 96.38 279.77 90.9 289.33 85.22 299.18 79.89 309.25 75.03 319.36 70.28 329.66 66.21 340.1 62.96 350.55 60.12 361.1 58.27 371.71 57.54" stroke-dasharray="2 2" transform="rotate(12.242424242424242, 400, 400)" opacity="0.17"></path><path d="M371 68.13C381.24 67.97 391.35 68.93 401.33 70.94 411.32 73.44 421.21 76.89 430.99 81.15 440.83 85.69 450.64 90.88 460.43 96.58 470.37 102.27 480.39 108.31 490.54 114.58 500.93 120.6 511.55 126.75 522.43 132.94 533.66 138.76 545.23 144.59 557.15 150.43 569.44 155.86 582.09 161.33 595.04 166.86 608.24 172.05 621.62 177.37 635.02 182.87 648.37 188.15 661.47 193.68 674.07 199.51 686.14 205.22 697.31 211.31 707.3 217.77 716.2 224.2 723.53 231.07 729.05 238.34 733.1 245.65 735.13 253.39 735.07 261.54 733.57 269.73 730.14 278.31 724.96 287.26 718.95 296.25 711.76 305.58 703.77 315.21 696.08 324.86 688.43 334.79 681.27 344.97 675.61 355.15 671.21 365.56 668.34 376.18 667.73 386.8 668.86 397.38 671.58 407.9 676.23 418.43 681.92 428.94 688.29 439.42 695.56 449.95 702.69 460.49 709.26 471.06 715.57 481.73 720.62 492.49 724.13 503.33 726.55 514.34 727.08 525.5 725.67 536.78 722.86 548.27 718.13 559.9 711.65 571.65 703.93 583.55 694.74 595.52 684.33 607.46 673.13 619.41 661.08 631.19 648.45 642.65 635.49 653.85 622.26 664.51 608.95 674.42 595.68 683.73 582.52 692.04 569.59 699.15 556.88 705.36 544.45 710.17 532.34 713.49 520.51 715.78 508.97 716.57 497.69 715.88 486.66 714.4 475.82 711.71 465.16 707.99 454.65 704.1 444.24 699.68 433.9 695.03 423.64 691.05 413.39 687.41 403.14 684.37 392.91 682.73 382.66 682.08 372.38 682.51 362.1 684.58 352.04 687.59 342.21 691.35 332.38 696.19 322.79 701.25 313.49 706.2 304.19 711.37 295.18 715.84 286.51 719.34 277.85 722.26 269.52 723.79 261.57 723.82 253.62 722.81 246.03 720.17 238.82 715.96 231.58 710.67 224.69 703.94 218.15 695.96 211.52 687.16 205.19 677.38 199.15 666.82 192.94 655.85 186.95 644.39 181.18 632.63 175.15 620.8 169.28 608.87 163.56 596.97 157.54 585.23 151.64 573.61 145.87 562.16 139.82 550.97 133.91 539.95 128.2 529.11 122.26 518.52 116.58 508.06 111.2 497.71 105.73 487.54 100.65 477.4 96.04 467.28 91.48 457.26 87.48 447.19 84.08 437.04 80.88 426.95 78.36 416.73 76.58 406.39 75.07 396.07 74.33 385.59 74.41 375 74.78 364.4 75.95 353.92 77.86 343.61 79.99 333.3 82.81 323.17 86.25 313.26 89.79 303.38 93.88 293.75 98.43 284.43 102.94 275.16 107.84 266.23 113.05 257.68 118.08 249.21 123.37 241.15 128.84 233.52 134.04 225.99 139.41 218.9 144.91 212.28 150.1 205.72 155.45 199.59 160.94 193.91 166.16 188.21 171.58 182.89 177.21 177.92 182.65 172.81 188.37 167.97 194.38 163.36 200.3 158.47 206.57 153.72 213.2 149.05 219.81 144 226.83 138.97 234.22 133.96 241.66 128.51 249.5 123.07 257.7 117.66 265.97 111.9 274.6 106.26 283.54 100.81 292.53 95.21 301.82 89.96 311.35 85.19 320.92 80.55 330.7 76.58 340.66 73.41 350.63 70.65 360.75 68.86 370.99 68.13" stroke-dasharray="2 1" transform="rotate(15.303030303030303, 400, 400)" opacity="0.19"></path><path d="M371.56 78.72C381.47 78.56 391.31 79.46 401.1 81.38 410.9 83.79 420.66 87.11 430.4 91.23 440.21 95.63 450.04 100.68 459.93 106.24 469.95 111.83 480.11 117.78 490.43 123.98 500.97 129.98 511.75 136.12 522.8 142.33 534.13 148.2 545.77 154.1 557.7 160.01 569.91 165.54 582.39 171.1 595.06 176.7 607.87 181.97 620.72 187.35 633.47 192.86 646.05 198.13 658.26 203.61 669.85 209.35 680.85 214.94 690.89 220.85 699.71 227.09 707.48 233.27 713.7 239.84 718.19 246.78 721.33 253.73 722.61 261.07 721.96 268.8 720.07 276.55 716.45 284.69 711.26 293.19 705.42 301.71 698.56 310.57 691.03 319.76 683.84 328.95 676.73 338.45 670.1 348.22 664.88 357.99 660.79 368.03 658.1 378.31 657.48 388.6 658.44 398.9 660.84 409.19 665.03 419.5 670.2 429.83 676.01 440.18 682.73 450.57 689.37 461.02 695.57 471.53 701.65 482.13 706.63 492.83 710.28 503.63 713.02 514.56 714.06 525.62 713.36 536.8 711.4 548.11 707.67 559.54 702.27 571.02 695.71 582.58 687.7 594.13 678.47 605.58 668.42 616.95 657.45 628.07 645.8 638.79 633.76 649.19 621.32 658.98 608.68 667.98 595.97 676.37 583.26 683.75 570.66 689.97 558.2 695.33 545.94 699.37 533.92 702 522.12 703.74 510.57 704.09 499.28 703.11 488.18 701.49 477.3 698.79 466.61 695.19 456.06 691.51 445.65 687.4 435.36 683.1 425.15 679.48 415 676.18 404.92 673.45 394.87 672.02 384.84 671.48 374.85 671.92 364.87 673.87 355.14 676.67 345.69 680.14 336.24 684.64 327.06 689.34 318.18 693.98 309.29 698.87 300.72 703.15 292.47 706.58 284.23 709.54 276.31 711.27 268.75 711.63 261.17 711.09 253.93 709.05 247.04 705.55 240.1 701.05 233.47 695.19 227.15 688.08 220.72 680.19 214.56 671.3 208.64 661.58 202.54 651.41 196.64 640.67 190.91 629.54 184.94 618.27 179.09 606.8 173.38 595.27 167.37 583.81 161.48 572.4 155.72 561.09 149.68 549.97 143.78 538.99 138.07 528.16 132.17 517.53 126.51 507.03 121.15 496.65 115.72 486.43 110.67 476.27 106.08 466.16 101.56 456.16 97.58 446.15 94.21 436.12 91.03 426.13 88.53 416.09 86.77 405.99 85.28 395.9 84.56 385.73 84.65 375.49 85.05 365.24 86.23 355.18 88.15 345.31 90.3 335.44 93.13 325.79 96.57 316.39 100.12 307.01 104.2 297.91 108.74 289.12 113.25 280.38 118.14 271.98 123.33 263.95 128.36 255.99 133.62 248.42 139.08 241.27 144.28 234.17 149.63 227.49 155.11 221.24 160.28 215 165.6 209.17 171.04 203.72 176.21 198.22 181.55 193.04 187.08 188.17 192.39 183.13 197.95 178.31 203.77 173.67 209.46 168.75 215.47 163.92 221.8 159.18 228.08 154.04 234.73 148.93 241.73 143.83 248.74 138.33 256.13 132.84 263.87 127.41 271.64 121.67 279.76 116.06 288.2 110.66 296.68 105.14 305.46 99.99 314.5 95.33 323.56 90.8 332.88 86.94 342.4 83.86 351.93 81.18 361.65 79.44 371.55 78.72" stroke-dasharray="2 2" transform="rotate(18.363636363636363, 400, 400)" opacity="0.22"></path><path d="M373.4 89.31C382.99 89.14 392.59 90 402.19 91.83 411.81 94.13 421.46 97.32 431.14 101.29 440.89 105.55 450.73 110.44 460.66 115.85 470.73 121.32 480.95 127.16 491.36 133.27 501.96 139.23 512.8 145.34 523.88 151.55 535.19 157.46 546.76 163.41 558.55 169.38 570.54 175 582.7 180.65 594.94 186.33 607.22 191.69 619.43 197.13 631.41 202.68 643.14 207.97 654.39 213.45 664.94 219.13 674.86 224.65 683.77 230.44 691.46 236.52 698.13 242.51 703.32 248.84 706.87 255.52 709.2 262.16 709.8 269.17 708.67 276.55 706.46 283.93 702.71 291.67 697.59 299.77 691.95 307.87 685.44 316.33 678.37 325.1 671.68 333.88 665.1 342.98 658.97 352.37 654.16 361.76 650.38 371.45 647.86 381.41 647.24 391.38 648.03 401.4 650.14 411.46 653.9 421.53 658.57 431.67 663.84 441.85 670.01 452.08 676.16 462.39 681.97 472.77 687.76 483.24 692.63 493.81 696.34 504.48 699.31 515.25 700.78 526.13 700.67 537.08 699.47 548.13 696.63 559.24 692.23 570.34 686.76 581.46 679.88 592.49 671.79 603.35 662.88 614.06 653.02 624.45 642.41 634.38 631.34 643.95 619.78 652.86 607.91 660.96 595.9 668.44 583.76 674.94 571.64 680.3 559.56 684.87 547.6 688.2 535.82 690.23 524.18 691.47 512.75 691.47 501.54 690.27 490.49 688.54 479.65 685.87 469.01 682.43 458.49 678.98 448.13 675.17 437.93 671.24 427.8 667.96 417.77 664.99 407.86 662.55 397.98 661.31 388.17 660.88 378.45 661.33 368.73 663.16 359.31 665.75 350.2 668.96 341.08 673.12 332.26 677.48 323.75 681.8 315.23 686.4 307.03 690.48 299.16 693.81 291.26 696.78 283.7 698.65 276.47 699.29 269.19 699.16 262.24 697.66 255.61 694.79 248.9 691.04 242.47 685.98 236.33 679.73 230.05 672.72 224 664.71 218.17 655.85 212.15 646.5 206.29 636.54 200.59 626.11 194.63 615.47 188.79 604.56 183.07 593.5 177.07 582.44 171.18 571.34 165.41 560.29 159.38 549.36 153.5 538.52 147.8 527.79 141.93 517.23 136.3 506.77 130.97 496.43 125.59 486.23 120.59 476.11 116.04 466.06 111.57 456.11 107.63 446.18 104.29 436.29 101.15 426.44 98.69 416.57 96.94 406.71 95.49 396.85 94.79 386.97 94.89 377.07 95.31 367.17 96.5 357.48 98.42 348.03 100.58 338.59 103.4 329.39 106.82 320.46 110.37 311.55 114.44 302.93 118.95 294.63 123.45 286.37 128.32 278.44 133.49 270.89 138.51 263.37 143.76 256.22 149.2 249.48 154.4 242.76 159.74 236.42 165.21 230.48 170.38 224.51 175.68 218.9 181.1 213.63 186.24 208.27 191.53 203.19 196.98 198.37 202.21 193.36 207.66 188.52 213.32 183.84 218.84 178.86 224.64 173.97 230.73 169.12 236.74 163.92 243.08 158.72 249.75 153.55 256.39 148 263.39 142.49 270.72 137.05 278.06 131.33 285.74 125.77 293.74 120.45 301.75 115.03 310.07 109.99 318.68 105.44 327.29 101.03 336.17 97.29 345.3 94.3 354.43 91.71 363.8 90.02 373.39 89.31" stroke-dasharray="2 0" transform="rotate(21.424242424242426, 400, 400)" opacity="0.25"></path><path d="M376.42 99.91C385.73 99.73 395.1 100.53 404.52 102.27 413.96 104.47 423.48 107.52 433.09 111.33 442.75 115.44 452.55 120.17 462.47 125.42 472.51 130.75 482.72 136.46 493.13 142.47 503.69 148.35 514.47 154.41 525.46 160.6 536.62 166.52 547.98 172.5 559.49 178.52 571.12 184.22 582.82 189.94 594.51 195.7 606.14 201.15 617.6 206.66 628.74 212.27 639.55 217.61 649.79 223.11 659.29 228.77 668.12 234.26 675.94 239.97 682.54 245.94 688.19 251.8 692.42 257.95 695.12 264.42 696.73 270.82 696.76 277.57 695.23 284.65 692.77 291.71 688.96 299.12 683.95 306.88 678.55 314.62 672.4 322.7 665.79 331.11 659.6 339.52 653.53 348.25 647.88 357.3 643.46 366.33 639.98 375.68 637.62 385.34 636.99 394.99 637.64 404.74 639.47 414.55 642.83 424.37 647.01 434.28 651.77 444.27 657.4 454.29 663.07 464.41 668.47 474.62 673.95 484.88 678.65 495.25 682.36 505.7 685.48 516.22 687.27 526.82 687.66 537.46 687.11 548.14 685.06 558.83 681.57 569.45 677.1 580.04 671.29 590.47 664.29 600.66 656.51 610.66 647.75 620.28 638.19 629.38 628.14 638.09 617.52 646.12 606.5 653.33 595.27 659.95 583.82 665.6 572.29 670.16 560.74 674.01 549.2 676.71 537.78 678.21 526.44 679.03 515.24 678.73 504.24 677.37 493.34 675.59 482.63 672.99 472.12 669.72 461.71 666.52 451.46 663.02 441.39 659.44 431.38 656.49 421.5 653.85 411.77 651.67 402.06 650.62 392.47 650.28 383.01 650.74 373.54 652.45 364.4 654.85 355.59 657.8 346.76 661.64 338.26 665.67 330.08 669.67 321.87 673.98 313.98 677.84 306.43 681.05 298.83 683.99 291.55 685.95 284.59 686.83 277.56 687.04 270.84 686 264.4 683.72 257.87 680.64 251.6 676.33 245.58 670.89 239.4 664.73 233.43 657.58 227.65 649.59 221.67 641.08 215.83 631.92 210.13 622.24 204.18 612.31 198.33 602.02 192.6 591.52 186.59 580.95 180.69 570.28 174.92 559.59 168.9 548.96 163.04 538.36 157.36 527.84 151.53 517.43 145.94 507.11 140.66 496.9 135.34 486.79 130.4 476.77 125.9 466.84 121.49 456.99 117.61 447.19 114.32 437.45 111.24 427.76 108.82 418.09 107.11 408.46 105.69 398.84 105.02 389.24 105.13 379.67 105.56 370.1 106.76 360.78 108.67 351.72 110.82 342.66 113.63 333.88 117.02 325.38 120.55 316.9 124.59 308.71 129.07 300.86 133.54 293.02 138.38 285.51 143.52 278.37 148.52 271.24 153.76 264.47 159.18 258.06 164.38 251.65 169.72 245.6 175.18 239.89 180.36 234.14 185.66 228.7 191.07 223.55 196.2 218.29 201.47 213.26 206.87 208.46 212.05 203.44 217.41 198.57 222.97 193.83 228.37 188.78 234.01 183.8 239.9 178.87 245.7 173.59 251.79 168.33 258.18 163.09 264.52 157.52 271.19 152 278.18 146.57 285.15 140.9 292.44 135.41 300.06 130.17 307.66 124.86 315.58 119.94 323.8 115.52 332.01 111.25 340.51 107.62 349.29 104.74 358.05 102.23 367.1 100.59 376.41 99.91" stroke-dasharray="1 0" transform="rotate(24.484848484848484, 400, 400)" opacity="0.28"></path><path d="M380.49 110.5C389.53 110.31 398.68 111.07 407.91 112.72 417.17 114.81 426.55 117.72 436.03 121.37 445.58 125.31 455.28 129.86 465.12 134.94 475.06 140.12 485.18 145.69 495.48 151.56 505.9 157.35 516.51 163.35 527.28 169.48 538.16 175.39 549.19 181.38 560.29 187.43 571.43 193.18 582.56 198.97 593.59 204.8 604.49 210.33 615.12 215.92 625.34 221.58 635.19 227 644.42 232.53 652.85 238.21 660.63 243.69 667.39 249.37 672.98 255.27 677.67 261.03 681.04 267.06 682.98 273.37 683.95 279.59 683.5 286.13 681.65 292.97 679.03 299.77 675.21 306.9 670.35 314.36 665.22 321.79 659.45 329.55 653.3 337.64 647.59 345.71 642.01 354.11 636.83 362.83 632.79 371.54 629.58 380.57 627.38 389.92 626.76 399.27 627.27 408.72 628.84 418.27 631.81 427.82 635.54 437.48 639.81 447.23 644.91 457 650.09 466.88 655.08 476.83 660.22 486.83 664.7 496.92 668.35 507.07 671.54 517.25 673.58 527.48 674.37 537.71 674.37 547.94 673 558.13 670.32 568.19 666.76 578.17 661.94 587.94 655.97 597.41 649.26 606.65 641.58 615.46 633.07 623.71 624.05 631.58 614.42 638.74 604.31 645.09 593.94 650.89 583.26 655.75 572.42 659.58 561.49 662.78 550.51 664.91 539.55 665.96 528.62 666.43 517.78 665.9 507.08 664.43 496.45 662.65 485.97 660.15 475.67 657.08 465.44 654.13 455.37 650.95 445.48 647.7 435.64 645.08 425.95 642.73 416.42 640.82 406.92 639.93 397.54 639.69 388.32 640.14 379.09 641.75 370.21 643.97 361.67 646.66 353.12 650.2 344.88 653.9 336.98 657.59 329.05 661.61 321.43 665.24 314.13 668.3 306.78 671.18 299.73 673.2 292.98 674.25 286.15 674.74 279.6 674.11 273.32 672.34 266.92 669.87 260.75 666.25 254.8 661.57 248.7 656.22 242.77 649.91 237.01 642.75 231.04 635.1 225.2 626.76 219.49 617.86 213.53 608.67 207.67 599.08 201.91 589.21 195.91 579.22 190 569.06 184.22 558.81 178.23 548.58 172.39 538.32 166.75 528.1 160.97 517.95 155.44 507.86 150.21 497.85 144.97 487.92 140.1 478.07 135.67 468.31 131.35 458.62 127.54 449 124.31 439.46 121.3 429.95 118.94 420.5 117.26 411.12 115.89 401.75 115.25 392.43 115.37 383.18 115.82 373.93 117.01 364.95 118.9 356.26 121.04 347.57 123.81 339.16 127.17 331.06 130.66 322.96 134.65 315.17 139.08 307.7 143.52 300.23 148.32 293.1 153.41 286.31 158.39 279.5 163.61 273.04 169 266.92 174.2 260.76 179.53 254.92 184.99 249.4 190.19 243.81 195.5 238.48 200.9 233.42 206.04 228.21 211.31 223.2 216.69 218.38 221.85 213.34 227.16 208.41 232.65 203.59 237.96 198.48 243.48 193.42 249.24 188.4 254.87 183.06 260.77 177.75 266.94 172.47 273.04 166.89 279.44 161.38 286.14 155.98 292.8 150.38 299.77 144.97 307.05 139.83 314.31 134.65 321.88 129.87 329.76 125.57 337.62 121.44 345.78 117.94 354.24 115.16 362.69 112.75 371.43 111.17 380.48 110.5" stroke-dasharray="0 1" transform="rotate(27.545454545454543, 400, 400)" opacity="0.31"></path><path d="M385.43 121.09C394.22 120.9 403.14 121.6 412.18 123.16 421.24 125.14 430.43 127.91 439.76 131.39 449.14 135.16 458.68 139.53 468.37 144.43 478.14 149.43 488.07 154.84 498.16 160.57 508.33 166.24 518.66 172.14 529.1 178.19 539.59 184.07 550.17 190.04 560.74 196.09 571.29 201.87 581.76 207.71 592.03 213.59 602.12 219.19 611.87 224.85 621.15 230.58 630.02 236.06 638.23 241.64 645.63 247.34 652.39 252.85 658.15 258.52 662.79 264.38 666.61 270.1 669.2 276.05 670.47 282.23 670.91 288.33 670.07 294.7 667.98 301.35 665.26 307.94 661.49 314.84 656.82 322.04 651.97 329.21 646.6 336.69 640.91 344.49 635.66 352.27 630.56 360.37 625.82 368.78 622.13 377.18 619.19 385.9 617.14 394.95 616.52 403.99 616.91 413.15 618.24 422.41 620.85 431.67 624.15 441.05 627.95 450.51 632.55 459.99 637.25 469.56 641.81 479.2 646.59 488.87 650.83 498.61 654.35 508.37 657.55 518.15 659.74 527.93 660.84 537.67 661.29 547.38 660.51 556.98 658.53 566.42 655.78 575.73 651.86 584.79 646.85 593.5 641.16 601.95 634.5 609.95 627.02 617.36 619.04 624.39 610.39 630.72 601.23 636.26 591.76 641.28 581.93 645.41 571.84 648.59 561.63 651.21 551.29 652.86 540.9 653.52 530.49 653.71 520.11 653.01 509.81 651.48 499.55 649.73 489.39 647.36 479.38 644.51 469.42 641.83 459.6 638.95 449.94 636.03 440.33 633.72 430.86 631.66 421.56 629.99 412.28 629.26 403.14 629.1 394.15 629.55 385.17 631.06 376.53 633.09 368.24 635.55 359.92 638.79 351.94 642.18 344.27 645.57 336.57 649.29 329.17 652.68 322.08 655.59 314.93 658.37 308.07 660.4 301.48 661.58 294.81 662.3 288.38 662.01 282.2 660.69 275.89 658.76 269.8 655.77 263.89 651.79 257.83 647.19 251.92 641.68 246.16 635.34 240.19 628.51 234.34 620.99 228.6 612.9 222.63 604.48 216.75 595.63 210.98 586.44 204.98 577.09 199.08 567.52 193.31 557.81 187.35 548.05 181.55 538.23 175.95 528.4 170.24 518.6 164.78 508.81 159.63 499.09 154.48 489.42 149.7 479.82 145.36 470.3 141.13 460.82 137.41 451.43 134.26 442.12 131.33 432.84 129.04 423.63 127.41 414.52 126.09 405.41 125.48 396.38 125.61 387.44 126.07 378.5 127.25 369.85 129.11 361.5 131.22 353.15 133.96 345.09 137.25 337.34 140.7 329.59 144.64 322.14 149 315.01 153.39 307.87 158.13 301.05 163.17 294.55 168.11 288.02 173.29 281.81 178.66 275.9 183.84 269.95 189.17 264.28 194.61 258.89 199.83 253.4 205.14 248.15 210.56 243.13 215.72 237.94 220.99 232.93 226.37 228.07 231.52 222.98 236.82 218 242.26 213.1 247.52 207.92 252.97 202.79 258.62 197.7 264.14 192.32 269.89 186.97 275.89 181.66 281.8 176.1 287.99 170.62 294.46 165.27 300.87 159.76 307.58 154.45 314.58 149.43 321.55 144.39 328.82 139.76 336.4 135.6 343.96 131.62 351.82 128.26 360 125.59 368.15 123.27 376.63 121.74 385.42 121.09" stroke-dasharray="2 1" transform="rotate(30.606060606060606, 400, 400)" opacity="0.34"></path><path d="M391.02 131.68C399.56 131.48 408.25 132.14 417.06 133.61 425.9 135.47 434.88 138.09 444 141.4 453.17 145 462.49 149.18 471.94 153.87 481.46 158.7 491.12 163.93 500.89 169.48 510.73 175.02 520.67 180.79 530.66 186.75 540.67 192.56 550.69 198.49 560.65 204.5 570.52 210.3 580.24 216.16 589.7 222.06 598.94 227.72 607.77 233.44 616.09 239.21 623.99 244.76 631.2 250.39 637.6 256.13 643.4 261.67 648.24 267.36 652.01 273.2 655.05 278.89 656.95 284.79 657.65 290.89 657.64 296.89 656.49 303.14 654.23 309.63 651.47 316.06 647.8 322.77 643.36 329.75 638.82 336.7 633.83 343.94 628.6 351.48 623.81 358.99 619.16 366.81 614.84 374.93 611.49 383.04 608.8 391.47 606.9 400.2 606.29 408.94 606.56 417.79 607.67 426.73 609.95 435.68 612.84 444.74 616.19 453.86 620.3 463.01 624.53 472.23 628.68 481.49 633.07 490.77 637.03 500.09 640.39 509.4 643.53 518.71 645.8 527.97 647.13 537.15 647.92 546.27 647.63 555.25 646.25 564 644.22 572.62 641.1 580.93 636.96 588.85 632.2 596.52 626.52 603.7 620.02 610.3 613.04 616.52 605.38 622.06 597.16 626.84 588.63 631.15 579.67 634.63 570.41 637.22 560.97 639.33 551.34 640.56 541.6 640.91 531.8 640.88 521.97 640.07 512.15 638.53 502.35 636.85 492.6 634.64 482.95 632.02 473.34 629.6 463.84 627.02 454.48 624.43 445.15 622.41 435.95 620.62 426.9 619.17 417.88 618.59 408.98 618.51 400.25 618.96 391.51 620.36 383.11 622.23 375.05 624.46 366.96 627.42 359.19 630.51 351.74 633.6 344.24 637.03 337.03 640.18 330.11 642.9 323.13 645.57 316.41 647.58 309.94 648.83 303.38 649.73 297.05 649.72 290.94 648.78 284.7 647.32 278.64 644.9 272.76 641.55 266.71 637.66 260.8 632.89 255.02 627.33 249.05 621.31 243.18 614.6 237.42 607.3 231.44 599.67 225.56 591.58 219.77 583.11 213.78 574.45 207.9 565.52 202.15 556.41 196.25 547.21 190.5 537.9 184.96 528.53 179.34 519.16 173.98 509.77 168.91 500.41 163.87 491.08 159.2 481.78 154.96 472.56 150.85 463.37 147.24 454.25 144.18 445.22 141.34 436.21 139.12 427.28 137.56 418.45 136.28 409.63 135.71 400.89 135.85 392.26 136.31 383.63 137.48 375.29 139.3 367.27 141.38 359.23 144.06 351.49 147.29 344.06 150.68 336.62 154.54 329.47 158.82 322.63 163.15 315.77 167.82 309.21 172.78 302.95 177.68 296.66 182.81 290.64 188.13 284.91 193.29 279.11 198.6 273.56 204.03 268.26 209.25 262.85 214.58 257.64 219.99 252.62 225.18 247.43 230.47 242.39 235.85 237.48 241.02 232.35 246.31 227.3 251.73 222.33 256.97 217.1 262.38 211.91 267.96 206.76 273.4 201.35 279.05 195.98 284.93 190.68 290.7 185.16 296.72 179.73 303 174.45 309.22 169.05 315.71 163.86 322.48 158.97 329.21 154.09 336.23 149.61 343.55 145.61 350.84 141.79 358.45 138.56 366.36 136 374.25 133.78 382.47 132.32 391.01 131.69" stroke-dasharray="1 1" transform="rotate(33.666666666666664, 400, 400)" opacity="0.37"></path><path d="M397.01 142.28C405.3 142.07 413.74 142.67 422.31 144.05 430.89 145.81 439.63 148.28 448.49 151.41 457.38 154.82 466.41 158.81 475.56 163.29 484.75 167.92 494.05 172.95 503.43 178.32 512.83 183.69 522.29 189.32 531.75 195.14 541.19 200.86 550.58 206.72 559.83 212.67 568.97 218.44 577.9 224.29 586.5 230.2 594.85 235.89 602.77 241.64 610.13 247.45 617.08 253.05 623.34 258.73 628.8 264.49 633.7 270.07 637.69 275.78 640.68 281.61 643.03 287.3 644.33 293.16 644.56 299.2 644.19 305.14 642.81 311.29 640.45 317.66 637.71 323.96 634.18 330.51 629.98 337.31 625.77 344.06 621.18 351.09 616.39 358.39 612.04 365.66 607.82 373.22 603.9 381.06 600.88 388.9 598.42 397.02 596.66 405.45 596.06 413.87 596.23 422.39 597.13 431 599.1 439.61 601.61 448.31 604.54 457.06 608.19 465.83 611.96 474.65 615.68 483.48 619.69 492.32 623.34 501.16 626.49 509.96 629.52 518.74 631.81 527.44 633.28 536.01 634.33 544.49 634.43 552.8 633.55 560.84 632.13 568.73 629.71 576.29 626.35 583.43 622.45 590.32 617.66 596.72 612.09 602.53 606.06 607.99 599.35 612.79 592.07 616.87 584.46 620.54 576.4 623.43 567.98 625.51 559.37 627.19 550.51 628.08 541.47 628.18 532.35 627.99 523.13 627.11 513.87 625.61 504.6 624.02 495.34 621.99 486.13 619.62 476.94 617.46 467.81 615.18 458.8 612.9 449.81 611.15 440.92 609.62 432.17 608.38 423.43 607.94 414.81 607.92 406.33 608.36 397.85 609.67 389.69 611.38 381.84 613.4 373.98 616.09 366.42 618.89 359.14 621.69 351.83 624.83 344.79 627.73 338.01 630.27 331.16 632.8 324.56 634.75 318.18 636.04 311.72 637.06 305.46 637.27 299.39 636.66 293.19 635.6 287.16 633.67 281.28 630.9 275.24 627.64 269.33 623.56 263.53 618.73 257.56 613.47 251.68 607.54 245.89 601.02 239.92 594.19 234.04 586.86 228.25 579.13 222.3 571.2 216.45 562.95 210.75 554.48 204.91 545.9 199.25 537.16 193.79 528.33 188.27 519.46 183.02 510.53 178.07 501.6 173.16 492.67 168.61 483.76 164.49 474.89 160.51 466.04 157.02 457.25 154.06 448.54 151.33 439.84 149.19 431.22 147.69 422.69 146.48 414.17 145.94 405.74 146.09 397.42 146.56 389.1 147.7 381.07 149.48 373.35 151.51 365.61 154.13 358.17 157.28 351.02 160.59 343.86 164.36 336.98 168.55 330.39 172.79 323.77 177.37 317.43 182.25 311.37 187.08 305.25 192.15 299.39 197.4 293.79 202.53 288.11 207.81 282.64 213.22 277.39 218.43 272.03 223.76 266.83 229.17 261.8 234.38 256.61 239.68 251.53 245.07 246.56 250.26 241.39 255.56 236.28 260.98 231.25 266.21 225.97 271.6 220.74 277.14 215.57 282.53 210.15 288.12 204.8 293.9 199.52 299.57 194.06 305.47 188.71 311.6 183.53 317.66 178.25 323.98 173.21 330.56 168.47 337.09 163.76 343.9 159.44 350.99 155.6 358.06 151.94 365.42 148.85 373.09 146.41 380.74 144.29 388.71 142.89 397 142.28" stroke-dasharray="1 0" transform="rotate(36.72727272727273, 400, 400)" opacity="0.40"></path><path d="M403.13 152.87C411.17 152.66 419.34 153.21 427.63 154.5 435.93 156.14 444.37 158.46 452.91 161.42 461.48 164.64 470.17 168.42 478.94 172.69 487.73 177.1 496.59 181.92 505.49 187.09 514.39 192.28 523.3 197.73 532.15 203.4 540.95 208.99 549.64 214.74 558.15 220.6 566.51 226.32 574.61 232.13 582.34 238 589.81 243.7 596.81 249.46 603.24 255.27 609.28 260.91 614.64 266.61 619.23 272.39 623.31 278.01 626.54 283.72 628.84 289.55 630.59 295.25 631.39 301.08 631.23 307.07 630.58 312.96 629.04 319.03 626.66 325.3 623.98 331.49 620.62 337.9 616.7 344.53 612.82 351.12 608.62 357.95 604.27 365.03 600.34 372.08 596.54 379.39 593 386.96 590.28 394.52 588.05 402.35 586.42 410.45 585.83 418.55 585.91 426.73 586.63 434.97 588.3 443.22 590.46 451.53 592.99 459.88 596.19 468.22 599.52 476.6 602.83 484.96 606.44 493.31 609.77 501.63 612.69 509.87 615.56 518.08 617.8 526.17 619.34 534.09 620.56 541.92 620.95 549.53 620.48 556.85 619.56 564.01 617.75 570.82 615.08 577.2 611.93 583.34 607.96 588.98 603.24 594.05 598.1 598.81 592.3 602.93 585.91 606.38 579.21 609.47 572.04 611.86 564.47 613.51 556.7 614.82 548.63 615.44 540.34 615.36 531.94 615.06 523.39 614.16 514.75 612.73 506.07 611.27 497.35 609.43 488.64 607.3 479.93 605.41 471.25 603.42 462.63 601.43 454.03 599.95 445.5 598.65 437.07 597.61 428.66 597.29 420.34 597.33 412.13 597.77 403.92 598.99 396.01 600.54 388.39 602.36 380.75 604.79 373.38 607.32 366.28 609.84 359.13 612.7 352.24 615.35 345.58 617.68 338.86 620.05 332.36 621.92 326.06 623.22 319.67 624.3 313.46 624.68 307.42 624.33 301.27 623.62 295.25 622.12 289.37 619.84 283.35 617.16 277.43 613.71 271.63 609.55 265.66 605.01 259.78 599.82 253.99 594.06 248.04 587.98 242.18 581.42 236.42 574.43 230.52 567.23 224.73 559.7 219.09 551.9 213.35 543.98 207.78 535.86 202.43 527.6 197.04 519.29 191.92 510.89 187.1 502.44 182.34 493.98 177.94 485.5 173.96 477.05 170.12 468.6 166.76 460.18 163.91 451.83 161.3 443.48 159.25 435.2 157.82 427 156.67 418.81 156.17 410.71 156.33 402.7 156.8 394.69 157.91 386.97 159.65 379.53 161.62 372.09 164.16 364.92 167.22 358.03 170.44 351.12 174.11 344.47 178.18 338.1 182.32 331.69 186.81 325.54 191.58 319.63 196.33 313.67 201.31 307.93 206.49 302.42 211.56 296.83 216.79 291.43 222.15 286.21 227.35 280.87 232.66 275.67 238.06 270.62 243.28 265.41 248.59 260.3 253.99 255.28 259.19 250.07 264.5 244.92 269.92 239.84 275.16 234.55 280.54 229.3 286.05 224.11 291.42 218.73 296.96 213.41 302.67 208.19 308.28 202.81 314.08 197.57 320.1 192.5 326.04 187.37 332.21 182.49 338.63 177.91 344.99 173.38 351.62 169.25 358.51 165.57 365.37 162.08 372.52 159.14 379.95 156.82 387.37 154.8 395.09 153.46 403.12 152.87" stroke-dasharray="1 1" transform="rotate(39.78787878787879, 400, 400)" opacity="0.42"></path><path d="M409.12 163.46C416.88 163.25 424.76 163.75 432.74 164.95 440.73 166.47 448.82 168.65 457.01 171.42 465.2 174.46 473.48 178.02 481.81 182.06 490.14 186.26 498.51 190.85 506.87 195.79 515.21 200.78 523.5 206.04 531.69 211.52 539.8 216.95 547.75 222.56 555.48 228.3 563.04 233.93 570.3 239.67 577.17 245.48 583.77 251.14 589.89 256.87 595.44 262.67 600.63 268.3 605.16 274.01 608.95 279.78 612.3 285.41 614.85 291.13 616.56 296.94 617.8 302.63 618.19 308.44 617.73 314.38 616.88 320.23 615.25 326.23 612.88 332.4 610.31 338.49 607.16 344.78 603.54 351.26 599.99 357.69 596.18 364.34 592.25 371.2 588.73 378.04 585.32 385.1 582.14 392.4 579.7 399.69 577.68 407.22 576.18 414.98 575.6 422.75 575.6 430.57 576.15 438.43 577.56 446.29 579.39 454.19 581.55 462.09 584.33 469.99 587.23 477.88 590.13 485.73 593.35 493.56 596.35 501.33 599.01 508.99 601.68 516.59 603.82 524.05 605.36 531.31 606.68 538.47 607.28 545.38 607.13 551.99 606.61 558.43 605.3 564.51 603.22 570.16 600.73 575.58 597.48 580.51 593.52 584.9 589.2 589.01 584.24 592.54 578.7 595.43 572.87 598.02 566.55 599.97 559.82 601.26 552.89 602.28 545.62 602.68 538.09 602.48 530.44 602.12 522.59 601.25 514.61 599.92 506.57 598.6 498.44 596.96 490.27 595.08 482.09 593.45 473.89 591.74 465.72 590.03 457.56 588.8 449.42 587.72 441.36 586.86 433.3 586.65 425.3 586.75 417.39 587.18 409.48 588.31 401.82 589.71 394.43 591.34 387.01 593.53 379.84 595.79 372.91 598.05 365.94 600.63 359.19 603.03 352.65 605.16 346.05 607.35 339.64 609.12 333.41 610.38 327.1 611.5 320.94 612 314.93 611.85 308.82 611.42 302.82 610.28 296.95 608.44 290.95 606.25 285.05 603.37 279.24 599.82 273.3 595.94 267.44 591.45 261.67 586.39 255.76 581.05 249.95 575.22 244.24 568.96 238.42 562.5 232.72 555.68 227.17 548.57 221.54 541.33 216.1 533.86 210.88 526.22 205.65 518.51 200.68 510.67 196.02 502.75 191.42 494.81 187.19 486.82 183.36 478.82 179.68 470.82 176.46 462.82 173.74 454.86 171.25 446.91 169.3 438.99 167.95 431.15 166.87 423.31 166.4 415.54 166.57 407.86 167.03 400.17 168.12 392.75 169.79 385.6 171.71 378.43 174.16 371.52 177.11 364.87 180.23 358.19 183.78 351.77 187.73 345.58 191.76 339.36 196.12 333.36 200.77 327.58 205.41 321.75 210.29 316.12 215.37 310.68 220.37 305.15 225.53 299.8 230.82 294.59 235.99 289.27 241.26 284.08 246.63 279.01 251.84 273.78 257.15 268.65 262.53 263.59 267.75 258.37 273.07 253.2 278.48 248.09 283.73 242.8 289.1 237.57 294.59 232.4 299.95 227.07 305.45 221.82 311.11 216.68 316.66 211.42 322.4 206.3 328.32 201.38 334.16 196.42 340.22 191.71 346.49 187.31 352.71 182.98 359.17 179.03 365.87 175.53 372.54 172.21 379.48 169.42 386.68 167.22 393.87 165.3 401.34 164.03 409.11 163.46" stroke-dasharray="1 2" transform="rotate(42.84848484848485, 400, 400)" opacity="0.45"></path><path d="M414.69 174.06C422.16 173.84 429.72 174.29 437.36 175.4 445 176.81 452.72 178.84 460.5 181.43 468.28 184.27 476.1 187.62 483.93 191.42 491.76 195.39 499.58 199.74 507.35 204.44 515.07 209.2 522.71 214.24 530.2 219.52 537.6 224.77 544.8 230.21 551.73 235.79 558.5 241.29 564.94 246.91 570.96 252.62 576.73 258.22 582.02 263.89 586.75 269.63 591.15 275.24 594.92 280.91 598 286.65 601.68 295.12 604.73 312.3 604.09 321.07 603.1 326.86 601.44 332.79 599.15 338.85 596.72 344.85 593.8 351.01 590.48 357.34 587.27 363.62 583.85 370.08 580.32 376.73 577.19 383.36 574.15 390.18 571.31 397.2 569.14 404.21 567.32 411.43 565.94 418.85 565.38 426.26 565.31 433.71 565.71 441.17 566.87 448.62 568.39 456.08 570.2 463.52 572.59 470.94 575.09 478.33 577.6 485.64 580.43 492.93 583.08 500.12 585.46 507.17 587.9 514.17 589.9 520.99 591.4 527.58 593.1 537.19 592.89 554.66 590.84 562.31 587.59 569.21 577.32 580.15 570.46 584.05 565.45 586.22 559.94 587.8 554.01 588.8 547.89 589.6 541.41 589.85 534.63 589.58 527.74 589.2 520.61 588.39 513.3 587.18 505.93 586.02 498.42 584.6 490.83 582.97 483.21 581.59 475.54 580.14 467.85 578.7 460.15 577.7 452.45 576.82 444.78 576.13 437.11 576.02 429.47 576.17 421.87 576.59 414.28 577.63 406.9 578.9 399.75 580.35 392.58 582.3 385.62 584.32 378.86 586.32 372.07 588.63 365.47 590.78 359.05 592.7 352.57 594.71 346.26 596.35 340.11 597.56 333.88 598.67 327.78 599.24 321.81 599.25 315.75 599.03 309.8 598.18 303.95 596.71 297.99 594.96 292.12 592.57 286.34 589.57 280.45 586.29 274.63 582.42 268.91 578.03 263.08 573.38 257.34 568.25 251.72 562.7 246 556.95 240.42 550.84 234.99 544.42 229.52 537.86 224.23 531.05 219.16 524.05 214.11 516.96 209.31 509.72 204.82 502.37 200.42 494.98 196.36 487.51 192.7 480 189.19 472.48 186.13 464.94 183.55 457.41 181.19 449.88 179.35 442.36 178.07 434.9 177.06 427.43 176.63 420.02 176.81 412.67 177.27 405.31 178.32 398.2 179.93 391.32 181.77 384.43 184.13 377.78 186.97 371.35 189.97 364.9 193.39 358.67 197.2 352.66 201.09 346.61 205.31 340.75 209.82 335.09 214.34 329.38 219.09 323.83 224.05 318.45 228.95 312.99 234.02 307.67 239.23 302.49 244.33 297.19 249.55 292 254.87 286.92 260.05 281.69 265.33 276.55 270.69 271.48 275.9 266.26 281.21 261.1 286.6 256 291.85 250.75 297.21 245.55 302.67 240.44 308.02 235.19 313.49 230.04 319.1 225.01 324.61 219.89 330.27 214.93 336.1 210.17 341.86 205.4 347.81 200.88 353.95 196.67 360.03 192.55 366.34 188.79 372.86 185.48 379.35 182.34 386.08 179.7 393.05 177.62 400 175.8 407.21 174.6 414.68 174.06" stroke-dasharray="2 1" transform="rotate(45.90909090909091, 400, 400)" opacity="0.48"></path><path d="M419.61 184.65C426.77 184.43 433.99 184.84 441.25 185.86 448.52 187.16 455.83 189.03 463.15 191.44 470.48 194.08 477.81 197.21 485.11 200.78 492.39 204.5 499.62 208.61 506.76 213.05 513.85 217.57 520.81 222.37 527.59 227.41 534.27 232.45 540.72 237.69 546.87 243.08 552.86 248.42 558.5 253.89 563.72 259.46 568.72 264.94 573.23 270.52 577.21 276.16 580.9 281.7 584 287.31 586.46 292.98 589.34 301.37 591.28 318.39 590.36 327.05 589.31 332.77 587.67 338.61 585.49 344.56 583.23 350.46 580.56 356.48 577.56 362.64 574.68 368.77 571.63 375.05 568.49 381.47 565.72 387.88 563.04 394.46 560.52 401.19 558.59 407.92 556.97 414.81 555.7 421.87 555.15 428.93 555.02 435.99 555.29 443.02 556.23 450.05 557.47 457.06 558.97 464.01 560.98 470.95 563.1 477.81 565.23 484.58 567.68 491.31 569.99 497.92 572.08 504.37 574.27 510.75 576.09 516.94 577.49 522.88 579.19 531.51 579.54 547.01 578.03 553.7 575.52 559.7 567.07 569.07 561.26 572.33 554.61 574.78 538.84 576.92 529.94 576.69 523.79 576.34 517.37 575.61 510.74 574.55 504.04 573.56 497.17 572.35 490.17 570.97 483.14 569.83 476.02 568.63 468.84 567.44 461.64 566.65 454.4 565.96 447.15 565.42 439.9 565.4 432.64 565.58 425.38 565.99 418.13 566.95 411.05 568.09 404.15 569.38 397.25 571.11 390.51 572.89 383.94 574.65 377.35 576.7 370.91 578.61 364.62 580.32 358.29 582.14 352.1 583.64 346.03 584.76 339.9 585.83 333.89 586.44 327.98 586.55 322 586.49 316.11 585.88 310.31 584.72 304.43 583.33 298.62 581.37 292.9 578.85 287.08 576.09 281.35 572.8 275.71 569.01 269.99 565 264.36 560.52 258.85 555.64 253.28 550.57 247.84 545.14 242.57 539.39 237.27 533.51 232.16 527.37 227.28 521 222.42 514.55 217.83 507.92 213.53 501.15 209.33 494.34 205.47 487.41 201.99 480.42 198.67 473.41 195.77 466.36 193.34 459.28 191.11 452.2 189.39 445.11 188.2 438.03 187.25 430.97 186.86 423.92 187.05 416.91 187.5 409.9 188.51 403.09 190.06 396.5 191.82 389.89 194.08 383.48 196.79 377.28 199.66 371.05 202.94 365.02 206.59 359.17 210.33 353.28 214.39 347.56 218.74 342.01 223.11 336.41 227.72 330.95 232.53 325.64 237.31 320.24 242.26 314.97 247.35 309.81 252.36 304.55 257.5 299.38 262.74 294.3 267.86 289.11 273.09 283.98 278.4 278.92 283.58 273.74 288.85 268.61 294.21 263.56 299.45 258.37 304.78 253.26 310.2 248.23 315.52 243.1 320.95 238.07 326.5 233.19 331.96 228.23 337.56 223.45 343.3 218.88 348.97 214.31 354.81 210 360.81 206 366.77 202.09 372.91 198.54 379.25 195.41 385.56 192.45 392.07 189.97 398.8 188.01 405.51 186.3 412.45 185.17 419.6 184.65" stroke-dasharray="1 3" transform="rotate(48.96969696969697, 400, 400)" opacity="0.51"></path><path d="M423.66 195.24C430.48 195.02 437.33 195.39 444.19 196.32 451.05 197.5 457.92 199.23 464.76 201.46 471.6 203.9 478.41 206.81 485.15 210.13 491.87 213.61 498.5 217.46 504.99 221.63 511.44 225.89 517.72 230.43 523.78 235.21 529.75 240.02 535.46 245.02 540.86 250.19 546.11 255.34 551.01 260.62 555.49 266.01 559.76 271.34 563.58 276.77 566.88 282.28 571.2 290.46 576.6 307.04 577.61 315.44 577.68 323.79 574.73 340.79 571.92 349.47 569.86 355.24 567.45 361.11 564.76 367.1 562.22 373.05 559.53 379.13 556.76 385.32 554.34 391.5 551.98 397.81 549.76 404.24 548.06 410.67 546.61 417.23 545.46 423.92 544.93 430.61 544.75 437.26 544.89 443.86 545.63 450.46 546.63 457 547.82 463.45 549.5 469.89 551.25 476.23 553.04 482.45 555.12 488.63 557.09 494.66 558.88 500.5 561.61 509.08 565.3 524.89 566 531.98 564.47 544.07 556.06 557.58 551.18 560.31 545.52 562.37 531.86 564.08 524.02 563.85 518.57 563.55 512.84 562.93 506.87 562.02 500.84 561.22 494.6 560.22 488.21 559.07 481.78 558.16 475.22 557.21 468.56 556.24 461.88 555.65 455.13 555.13 448.32 554.73 441.51 554.78 434.65 555.01 427.76 555.4 420.87 556.28 414.12 557.3 407.5 558.43 400.88 559.96 394.39 561.51 388.03 563.05 381.66 564.85 375.41 566.53 369.28 568.03 363.11 569.64 357.06 570.99 351.11 572.01 345.11 573.01 339.2 573.61 333.39 573.78 327.52 573.84 321.72 573.41 316.01 572.5 310.23 571.4 304.52 569.8 298.9 567.7 293.2 565.4 287.59 562.61 282.07 559.36 276.49 555.93 271.01 552.05 265.65 547.79 260.26 543.36 255 538.57 249.91 533.47 244.82 528.24 239.92 522.74 235.24 517 230.61 511.18 226.24 505.16 222.16 498.98 218.18 492.75 214.53 486.39 211.25 479.94 208.12 473.45 205.39 466.9 203.12 460.29 201.03 453.68 199.42 447.03 198.32 440.37 197.45 433.71 197.1 427.05 197.29 420.4 197.73 413.74 198.7 407.26 200.17 400.95 201.85 394.63 203.99 388.48 206.57 382.5 209.3 376.5 212.43 370.66 215.9 364.97 219.48 359.26 223.37 353.68 227.53 348.25 231.73 342.76 236.17 337.4 240.82 332.16 245.45 326.85 250.25 321.63 255.2 316.52 260.09 311.32 265.11 306.2 270.24 301.15 275.28 296.01 280.43 290.93 285.65 285.92 290.78 280.81 295.99 275.75 301.28 270.77 306.48 265.69 311.76 260.69 317.12 255.79 322.39 250.81 327.77 245.94 333.24 241.22 338.64 236.46 344.15 231.88 349.79 227.52 355.36 223.17 361.08 219.09 366.94 215.3 372.76 211.61 378.73 208.27 384.87 205.33 390.98 202.56 397.27 200.24 403.73 198.41 410.19 196.8 416.83 195.74 423.65 195.24" stroke-dasharray="3 1" transform="rotate(52.03030303030303, 400, 400)" opacity="0.54"></path><path d="M426.65 205.83C433.12 205.61 439.58 205.94 446.01 206.78 452.44 207.86 458.84 209.44 465.19 211.49 477.85 216.17 490.2 222.51 501.97 230.19 513.51 238.25 524.22 247.33 533.75 257.15 542.73 266.96 550.2 277.31 555.85 288.02 560.68 298.5 563.49 309.3 564.16 320.32 564.11 331.1 562.14 342.19 558.48 353.53 554.83 364.72 550.23 376.29 545.13 388.18 543.03 394.11 540.98 400.14 539.04 406.27 537.56 412.38 536.27 418.6 535.22 424.9 534.72 431.2 534.49 437.44 534.53 443.6 535.09 449.76 535.85 455.83 536.78 461.79 539.89 473.66 543.07 485.01 545.89 495.6 549.26 505.97 551.46 515.4 552.18 523.62 552.54 531.42 551.01 537.83 547.59 542.65 543.49 546.97 537.54 549.69 529.95 550.79 521.82 551.64 512.31 551.19 501.72 549.63 490.87 548.52 479.19 546.92 466.94 545.12 460.8 544.7 454.54 544.33 448.19 544.06 441.83 544.18 435.4 544.43 428.9 544.81 422.4 545.61 415.99 546.52 409.68 547.5 403.37 548.84 397.15 550.19 391.04 551.51 378.77 554.85 366.83 557.56 355.28 559.32 343.57 561.13 332.14 561.43 321.03 560.1 309.71 558.23 298.66 554.54 287.99 549.15 277.17 543.13 266.79 535.55 257.04 526.66 247.36 517.34 238.49 506.95 230.71 495.81 223.33 484.47 217.3 472.56 212.88 460.32 210.95 454.19 209.46 448 208.44 441.76 207.64 435.53 207.33 429.26 207.53 422.98 207.96 416.69 208.88 410.54 210.27 404.52 211.86 398.5 213.88 392.62 216.32 386.87 221.62 375.33 228.35 364.27 236.21 353.7 244.26 342.96 253.2 332.58 262.78 322.58 272.22 312.28 282.15 302.23 292.44 292.48 302.42 282.38 312.75 272.55 323.37 263.13 333.68 253.49 344.39 244.39 355.45 236.1 366.32 227.94 377.69 220.88 389.55 215.25 395.45 212.67 401.49 210.5 407.68 208.8 413.85 207.3 420.18 206.3 426.64 205.84" stroke-dasharray="1 1" transform="rotate(55.090909090909086, 400, 400)" opacity="0.57"></path><path d="M428.46 216.43C440.63 216.21 452.64 217.98 464.31 221.53 475.95 225.8 487.14 231.64 497.66 238.75 507.96 246.24 517.36 254.75 525.57 263.99 533.3 273.29 539.6 283.16 544.21 293.41 548.15 303.51 550.3 313.94 550.59 324.59 550.35 335.06 548.48 345.81 545.17 356.75 542 367.57 538.01 378.69 533.59 390.04 530.32 401.35 527.35 412.96 524.98 424.77 524.51 436.59 524.85 448.04 525.84 458.99 528.32 469.89 530.87 480.18 533.11 489.67 535.94 498.98 537.79 507.33 538.42 514.51 538.26 524.14 529.01 535.96 519.99 538.07 513.02 538.89 504.72 538.6 495.33 537.38 485.69 536.63 475.17 535.44 463.98 534.06 452.73 533.83 440.93 533.86 428.75 534.21 416.57 536.04 404.59 538.04 392.91 540.03 381.2 542.91 369.71 545.22 358.53 546.71 347.24 548.34 336.16 548.66 325.38 547.57 314.46 546.1 303.79 543.03 293.51 538.43 283.16 533.33 273.25 526.78 263.98 518.99 254.83 510.83 246.49 501.61 239.2 491.58 232.33 481.38 226.72 470.54 222.64 459.28 219.26 447.97 217.57 436.34 217.77 424.53 218.79 412.72 221.63 401.29 226.04 390.3 231.02 379.26 237.36 368.59 244.78 358.32 252.43 347.91 260.95 337.79 270.11 327.98 279.2 317.94 288.8 308.13 298.76 298.61 308.5 288.82 318.58 279.33 328.92 270.27 339.04 261.07 349.49 252.44 360.23 244.62 370.82 236.98 381.82 230.39 393.19 225.17 404.5 220.53 416.27 217.53 428.44 216.43" stroke-dasharray="2 2" transform="rotate(58.151515151515156, 400, 400)" opacity="0.60"></path><path d="M428.99 227.02C440.37 226.79 451.45 228.37 462.11 231.58 472.71 235.46 482.77 240.78 492.09 247.31 501.21 254.22 509.4 262.11 516.42 270.74 523.05 279.47 528.32 288.79 532.06 298.49 535.29 308.13 536.93 318.11 536.96 328.29 536.65 338.36 534.94 348.68 532.03 359.14 529.33 369.53 525.93 380.14 522.16 390.89 519.4 401.61 516.85 412.53 514.73 423.54 514.25 434.55 514.37 445.11 514.99 455.1 516.91 465.05 518.87 474.34 520.56 482.81 522.85 491.12 524.33 498.5 524.79 504.78 524.71 513.21 516.99 523.51 509.28 525.41 503.32 526.27 496.1 526.17 487.81 525.28 479.3 524.87 469.88 524.07 459.72 523.07 449.5 523.08 438.65 523.25 427.32 523.62 415.98 525.26 404.72 526.97 393.65 528.61 382.55 531.06 371.6 532.99 360.87 534.21 350.08 535.61 339.45 535.9 329.09 534.97 318.65 533.8 308.46 531.22 298.66 527.29 288.85 522.98 279.48 517.34 270.76 510.54 262.19 503.43 254.42 495.29 247.65 486.33 241.29 477.21 236.14 467.41 232.4 457.11 229.31 446.77 227.79 436.02 228.01 424.99 228.98 413.96 231.63 403.18 235.74 392.72 240.39 382.23 246.31 372 253.26 362.09 260.46 352.06 268.51 342.26 277.19 332.74 285.87 323.03 295.07 313.53 304.62 304.33 314.04 294.95 323.79 285.86 333.78 277.23 343.6 268.54 353.72 260.42 364.07 253.11 374.31 246 384.87 239.9 395.7 235.08 406.49 230.81 417.61 228.04 428.99 227.02" stroke-dasharray="0 1" transform="rotate(61.21212121212121, 400, 400)" opacity="0.63"></path><path d="M428.23 237.61C438.78 237.37 448.93 238.77 458.57 241.66 468.16 245.14 477.14 249.96 485.33 255.9 493.35 262.21 500.44 269.46 506.42 277.43 512.07 285.55 516.48 294.24 519.52 303.34 522.18 312.43 523.45 321.86 523.35 331.5 523.04 341.07 521.56 350.87 519.06 360.79 516.82 370.65 513.99 380.68 510.81 390.78 508.54 400.87 506.37 411.07 504.49 421.25 504 431.44 503.94 441.12 504.23 450.2 505.65 459.22 507.07 467.57 508.26 475.11 510.56 485.78 511.2 501.94 508.7 507.17 504.6 511.06 489.73 513.85 479.28 513.35 471.81 513.25 463.41 512.8 454.25 512.14 445.03 512.36 435.13 512.64 424.67 513.03 414.21 514.49 403.71 515.94 393.3 517.26 382.89 519.3 372.55 520.87 362.36 521.81 352.15 522.97 342.07 523.18 332.23 522.34 322.36 521.37 312.73 519.18 303.49 515.8 294.29 512.14 285.53 507.29 277.41 501.37 269.47 495.2 262.29 488.05 256.07 480.09 250.25 471.99 245.55 463.19 242.17 453.84 239.37 444.44 238.01 434.57 238.25 424.34 239.17 414.1 241.62 404 245.42 394.12 249.71 384.22 255.2 374.49 261.66 365 268.38 355.43 275.91 346.03 284.07 336.87 292.27 327.59 300.99 318.5 310.06 309.7 319.06 300.79 328.39 292.18 337.95 284.05 347.39 275.91 357.1 268.35 366.98 261.57 376.79 255.01 386.84 249.41 397.06 245 407.26 241.09 417.69 238.56 428.23 237.61" stroke-dasharray="1 3" transform="rotate(64.27272727272727, 400, 400)" opacity="0.65"></path><path d="M426.21 248.21C435.9 247.95 445.13 249.18 453.78 251.75 462.39 254.84 470.34 259.16 477.5 264.52 484.51 270.22 490.63 276.81 495.7 284.1 500.52 291.54 504.22 299.57 506.71 307.99 508.93 316.46 509.97 325.26 509.83 334.28 509.59 343.27 508.37 352.47 506.29 361.76 504.5 371.03 502.2 380.42 499.57 389.82 497.72 399.22 495.91 408.66 494.25 418.02 493.76 427.38 493.54 436.2 493.56 444.4 494.55 452.55 495.48 460.03 496.2 466.72 497.81 476.19 497.84 490.47 495.55 495.11 492 498.69 479.11 501.67 469.95 501.59 463.4 501.78 455.95 501.64 447.73 501.27 439.46 501.66 430.49 502.05 420.92 502.44 411.34 503.73 401.65 504.93 391.98 505.98 382.31 507.64 372.64 508.87 363.09 509.54 353.54 510.46 344.09 510.55 334.86 509.75 325.64 508.89 316.66 507 308.06 504.06 299.53 500.94 291.44 496.75 283.96 491.6 276.69 486.26 270.13 480 264.49 472.96 259.21 465.8 254.97 457.94 251.94 449.5 249.43 441.02 248.24 432.02 248.49 422.6 249.35 413.18 251.6 403.79 255.08 394.53 259.02 385.27 264.05 376.1 270 367.11 276.2 358.06 283.18 349.14 290.75 340.44 298.42 331.65 306.59 323.05 315.11 314.75 323.61 306.38 332.44 298.33 341.47 290.75 350.44 283.21 359.64 276.24 368.97 270.01 378.27 264.02 387.73 258.92 397.3 254.92 406.85 251.37 416.52 249.07 426.21 248.21" stroke-dasharray="1 1" transform="rotate(67.33333333333333, 400, 400)" opacity="0.68"></path><path d="M423.03 258.8C431.85 258.53 440.15 259.6 447.86 261.86 455.52 264.58 462.52 268.41 468.75 273.19 474.86 278.28 480.11 284.2 484.42 290.78 488.54 297.53 491.67 304.83 493.74 312.54 495.65 320.31 496.54 328.42 496.44 336.74 496.33 345.06 495.39 353.58 493.73 362.19 492.37 370.78 490.55 379.47 488.42 388.13 486.95 396.8 485.46 405.46 484.01 413.99 483.53 422.52 483.19 430.5 482.98 437.85 483.58 445.19 484.09 451.86 484.4 457.79 485.04 472.56 479.33 486.45 474.25 488.3 468.04 489.7 450.97 490.51 440.35 490.47 432.98 491 424.92 491.46 416.24 491.84 407.56 492.98 398.7 493.97 389.81 494.76 380.93 496.08 372.01 496.99 363.18 497.41 354.36 498.07 345.62 498.03 337.09 497.23 328.6 496.43 320.33 494.74 312.43 492.16 304.63 489.46 297.26 485.83 290.47 481.34 283.88 476.71 277.98 471.25 272.91 465.04 268.18 458.74 264.4 451.76 261.72 444.19 259.5 436.59 258.47 428.45 258.73 419.85 259.52 411.25 261.57 402.61 264.73 394.03 268.3 385.44 272.87 376.89 278.28 368.47 283.94 360.03 290.33 351.67 297.29 343.51 304.36 335.3 311.92 327.28 319.82 319.53 327.74 311.78 335.98 304.34 344.41 297.37 352.82 290.47 361.42 284.11 370.13 278.46 378.82 273.04 387.64 268.44 396.48 264.85 405.32 261.66 414.21 259.59 423.03 258.8" stroke-dasharray="1 1" transform="rotate(70.3939393939394, 400, 400)" opacity="0.71"></path><path d="M418.82 269.39C426.75 269.12 434.17 270.03 440.97 272 447.75 274.36 453.87 277.71 459.26 281.91 464.57 286.4 469.09 291.65 472.76 297.5 476.31 303.53 478.99 310.09 480.76 317.03 482.44 324.06 483.27 331.42 483.27 338.98 483.31 346.58 482.66 354.35 481.4 362.2 480.42 370.06 479.04 377.99 477.35 385.88 476.23 393.78 475.02 401.63 473.77 409.34 473.3 417.04 472.87 424.2 472.49 430.78 472.84 440.3 473.24 456.02 472.72 462.09 469.33 470.91 456.76 477.96 449.69 478.63 444.65 479.27 438.85 479.62 432.35 479.73 425.82 480.36 418.62 480.87 410.83 481.25 403.04 482.24 395.04 483.03 386.98 483.6 378.93 484.61 370.82 485.24 362.76 485.43 354.74 485.85 346.79 485.67 339.02 484.83 331.32 484.04 323.83 482.5 316.69 480.19 309.66 477.83 303.04 474.66 296.96 470.73 291.09 466.72 285.84 461.95 281.36 456.49 277.18 450.97 273.86 444.81 271.52 438.07 269.58 431.3 268.7 424 268.97 416.22 269.7 408.44 271.54 400.57 274.38 392.7 277.57 384.84 281.67 376.98 286.53 369.2 291.63 361.42 297.4 353.71 303.7 346.16 310.13 338.61 317.03 331.23 324.25 324.12 331.52 317.04 339.09 310.27 346.84 303.94 354.6 297.7 362.54 291.98 370.54 286.92 378.56 282.07 386.65 277.98 394.72 274.79 402.81 271.94 410.88 270.1 418.82 269.39" stroke-dasharray="2 2" transform="rotate(73.45454545454545, 400, 400)" opacity="0.74"></path><path d="M413.76 279.99C420.82 279.72 427.37 280.48 433.33 282.17 439.27 284.18 444.59 287.07 449.25 290.72 453.85 294.61 457.74 299.19 460.89 304.32 463.97 309.62 466.3 315.41 467.87 321.56 469.4 327.8 470.22 334.37 470.35 341.13 470.55 347.94 470.18 354.92 469.3 361.97 468.66 369.04 467.67 376.17 466.39 383.25 465.56 390.34 464.6 397.38 463.53 404.26 462.84 414.33 462.01 431.81 461.6 439.1 460.46 450.88 454.44 462.68 450.31 464.69 445.45 466.47 432.24 468.5 423.97 469.05 418.21 469.75 411.86 470.3 404.94 470.66 398.02 471.51 390.9 472.13 383.69 472.5 376.51 473.24 369.25 473.63 362.03 473.61 354.85 473.8 347.73 473.48 340.79 472.6 333.92 471.79 327.25 470.35 320.91 468.26 314.69 466.16 308.84 463.37 303.5 459.91 298.34 456.41 293.75 452.25 289.85 447.47 286.22 442.66 283.34 437.24 281.34 431.28 279.68 425.31 278.94 418.82 279.21 411.86 279.87 404.91 281.5 397.83 284.02 390.72 286.83 383.62 290.46 376.49 294.77 369.43 299.29 362.36 304.42 355.36 310.05 348.51 315.8 341.67 321.98 334.99 328.48 328.58 335.04 322.21 341.88 316.15 348.88 310.5 355.92 304.95 363.11 299.87 370.36 295.41 377.62 291.13 384.93 287.53 392.2 284.74 399.48 282.24 406.7 280.62 413.76 279.99" stroke-dasharray="1 1" transform="rotate(76.51515151515152, 400, 400)" opacity="0.77"></path><path d="M408.1 290.58C420.49 290.35 430.88 293.6 438.95 299.61 446.85 306.43 452.31 315.58 455.19 326.19 458.06 337.15 458.73 349.24 457.43 361.65 457.02 374.16 455.55 386.86 453.29 398.99 452.93 411.12 452.05 421.46 450.6 429.72 449.48 441.06 439.28 453.96 428.84 456.43 421.04 458.54 410.95 459.77 398.83 460.06 386.71 461.88 373.88 462.54 361.15 461.96 348.59 462.11 336.32 460.31 325.18 456.46 314.49 452.66 305.28 446.5 298.41 438.18 292.44 429.77 289.21 419.26 289.45 406.98 290.92 394.7 295.7 381.9 303.01 369.29 311.05 356.71 321.19 344.37 332.57 332.99 344.23 321.81 356.88 311.84 369.72 303.94 382.65 296.7 395.71 291.97 408.1 290.58" stroke-dasharray="3 1" transform="rotate(79.57575757575758, 400, 400)" opacity="0.80"></path><path d="M402.07 301.17C412.75 300.9 421.67 303.58 428.57 308.6 435.39 314.28 440.16 321.99 442.82 331.01 445.56 340.35 446.51 350.72 445.82 361.43 445.85 372.23 444.88 383.24 443.05 393.77 442.64 404.3 441.56 413.3 439.86 420.56 438.08 430.64 428.05 442.83 418.77 445.63 411.95 447.81 403.22 449.13 392.77 449.47 382.33 450.96 371.27 451.29 360.34 450.48 349.55 450.27 339.06 448.41 329.6 444.86 320.53 441.42 312.77 436.02 307.05 428.8 302.06 421.53 299.41 412.44 299.69 401.78 300.95 391.12 305.03 379.97 311.27 368.95 318.12 358 326.82 347.26 336.63 337.42 346.71 327.78 357.68 319.23 368.82 312.52 380.07 306.36 391.39 302.35 402.07 301.17" stroke-dasharray="3 3" transform="rotate(82.63636363636364, 400, 400)" opacity="0.83"></path><path d="M395.95 311.76C404.97 311.47 412.51 313.61 418.38 317.7 424.2 322.3 428.38 328.62 430.87 336.09 433.47 343.81 434.64 352.47 434.45 361.47 434.82 370.56 434.27 379.86 432.81 388.82 432.38 397.78 431.2 405.51 429.37 411.83 427.15 420.68 417.43 432.07 409.25 435.02 403.32 437.19 395.86 438.52 387.04 438.88 378.21 440.07 368.92 440.15 359.78 439.19 350.76 438.7 342.05 436.82 334.25 433.57 326.76 430.44 320.41 425.72 315.79 419.52 311.73 413.31 309.62 405.57 309.93 396.51 310.99 387.44 314.38 377.95 319.57 368.6 325.26 359.3 332.51 350.22 340.72 341.94 349.19 333.85 358.43 326.73 367.85 321.17 377.35 316.06 386.93 312.74 395.95 311.76" stroke-dasharray="2 0" transform="rotate(85.6969696969697, 400, 400)" opacity="0.86"></path><path d="M390.01 322.36C397.42 322.06 403.65 323.71 408.56 326.94 413.46 330.52 417.1 335.52 419.4 341.49 421.84 347.66 423.14 354.63 423.33 361.95 423.93 369.34 423.69 376.96 422.57 384.38 421.56 395.03 416.69 411.3 412.46 416.84 407.54 421.66 392.25 427.3 381.88 428.29 374.62 429.2 367.06 429.1 359.68 428.07 352.39 427.39 345.41 425.56 339.21 422.64 333.25 419.83 328.25 415.77 324.66 410.54 321.47 405.32 319.85 398.88 320.17 391.39 321.03 383.89 323.76 376.08 327.94 368.4 332.48 360.77 338.32 353.36 344.97 346.65 351.81 340.09 359.32 334.35 367.01 329.91 374.77 325.8 382.6 323.14 390.01 322.36" stroke-dasharray="3 1" transform="rotate(88.75757575757575, 400, 400)" opacity="0.88"></path><path d="M384.52 332.95C396.21 332.71 404.43 338.32 408.51 347.28 413 356.78 414.39 368.82 412.33 380.63 412 392.42 408.6 401.65 402.85 407.4 397.7 413.66 389.02 417.41 377.53 417.69 366.03 419.4 354.09 417.33 344.57 412.14 335.7 407.33 330.14 398.56 330.41 386.65 332.08 374.74 339.34 362.09 349.44 351.6 360.1 341.59 372.82 334.45 384.52 332.95" stroke-dasharray="1 1" transform="rotate(91.81818181818181, 400, 400)" opacity="0.91"></path><path d="M379.71 343.54C388.38 343.23 394.74 347.14 398.23 353.52 401.98 360.22 403.45 368.93 402.09 377.74 401.69 386.55 398.71 393.75 393.95 398.51 389.55 403.59 382.72 406.76 374.18 407.1 365.63 408.23 357.06 406.34 350.41 402.13 344.14 398.16 340.31 391.38 340.65 382.51 341.81 373.63 346.98 364.41 354.23 356.89 361.84 349.66 371.04 344.57 379.71 343.54" stroke-dasharray="1 1" transform="rotate(94.87878787878789, 400, 400)" opacity="0.94"></path><path d="M375.81 354.14C387.25 353.88 393.81 364.12 391.85 375.84 391.53 387.55 383.31 396.24 371.98 396.51 360.64 398.16 350.61 390.92 350.89 379.15 352.66 367.37 364.36 355.69 375.81 354.14" stroke-dasharray="1 3" transform="rotate(97.93939393939394, 400, 400)" opacity="0.97"></path></g></svg>