<svg xmlns="http://www.w3.org/2000/svg" version="1.1" xmlns:xlink="http://www.w3.org/1999/xlink" xmlns:svgjs="http://svgjs.dev/svgjs" viewBox="0 0 2400 800"><g stroke-width="2.5" stroke="hsl(0, 0%, 0%)" fill="none" stroke-linecap="round"><path d="M 0 777 Q 600 400 1200 400 Q 1800 400 2400 777" stroke-dasharray="102 42" opacity="0.10"></path><path d="M 0 740 Q 600 400 1200 400 Q 1800 400 2400 740" stroke-dasharray="33 8" opacity="0.40"></path><path d="M 0 703 Q 600 400 1200 400 Q 1800 400 2400 703" stroke-dasharray="81 50" opacity="0.76"></path><path d="M 0 666 Q 600 400 1200 400 Q 1800 400 2400 666" stroke-dasharray="74 96" opacity="0.64"></path><path d="M 0 629 Q 600 400 1200 400 Q 1800 400 2400 629" stroke-dasharray="106 6" opacity="0.97"></path><path d="M 0 592 Q 600 400 1200 400 Q 1800 400 2400 592" stroke-dasharray="49 41" opacity="0.36"></path><path d="M 0 555 Q 600 400 1200 400 Q 1800 400 2400 555" stroke-dasharray="55 68" opacity="0.97"></path><path d="M 0 518 Q 600 400 1200 400 Q 1800 400 2400 518" stroke-dasharray="9 102" opacity="0.50"></path><path d="M 0 481 Q 600 400 1200 400 Q 1800 400 2400 481" stroke-dasharray="96 4" opacity="0.43"></path><path d="M 0 444 Q 600 400 1200 400 Q 1800 400 2400 444" stroke-dasharray="14 85" opacity="0.93"></path><path d="M 0 407 Q 600 400 1200 400 Q 1800 400 2400 407" stroke-dasharray="26 105" opacity="0.44"></path><path d="M 0 370 Q 600 400 1200 400 Q 1800 400 2400 370" stroke-dasharray="87 26" opacity="0.75"></path><path d="M 0 333 Q 600 400 1200 400 Q 1800 400 2400 333" stroke-dasharray="93 49" opacity="0.51"></path><path d="M 0 296 Q 600 400 1200 400 Q 1800 400 2400 296" stroke-dasharray="59 31" opacity="0.81"></path><path d="M 0 259 Q 600 400 1200 400 Q 1800 400 2400 259" stroke-dasharray="41 49" opacity="0.69"></path><path d="M 0 222 Q 600 400 1200 400 Q 1800 400 2400 222" stroke-dasharray="17 24" opacity="0.97"></path><path d="M 0 185 Q 600 400 1200 400 Q 1800 400 2400 185" stroke-dasharray="86 102" opacity="0.64"></path><path d="M 0 148 Q 600 400 1200 400 Q 1800 400 2400 148" stroke-dasharray="26 88" opacity="0.28"></path><path d="M 0 111 Q 600 400 1200 400 Q 1800 400 2400 111" stroke-dasharray="8 14" opacity="0.21"></path><path d="M 0 74 Q 600 400 1200 400 Q 1800 400 2400 74" stroke-dasharray="112 74" opacity="0.87"></path></g></svg>