<svg xmlns="http://www.w3.org/2000/svg" version="1.1" xmlns:xlink="http://www.w3.org/1999/xlink" xmlns:svgjs="http://svgjs.dev/svgjs" viewBox="0 0 1422 800" opacity="1"><g stroke-width="1" stroke="hsl(0, 0%, 0%)" fill="none" stroke-linecap="round"><path d="M 0 684 Q 355.5 280 711 400 Q 1066.5 520 1422 684" stroke-dasharray="33 46" opacity="0.19"></path><path d="M 0 672 Q 355.5 280 711 400 Q 1066.5 520 1422 672" stroke-dasharray="12 67" opacity="0.67"></path><path d="M 0 660 Q 355.5 280 711 400 Q 1066.5 520 1422 660" stroke-dasharray="56 54" opacity="0.09"></path><path d="M 0 648 Q 355.5 280 711 400 Q 1066.5 520 1422 648" stroke-dasharray="23 44" opacity="0.97"></path><path d="M 0 636 Q 355.5 280 711 400 Q 1066.5 520 1422 636" stroke-dasharray="1 17" opacity="0.90"></path><path d="M 0 624 Q 355.5 280 711 400 Q 1066.5 520 1422 624" stroke-dasharray="14 30" opacity="0.11"></path><path d="M 0 612 Q 355.5 280 711 400 Q 1066.5 520 1422 612" stroke-dasharray="78 88" opacity="0.49"></path><path d="M 0 600 Q 355.5 280 711 400 Q 1066.5 520 1422 600" stroke-dasharray="70 61" opacity="0.84"></path><path d="M 0 588 Q 355.5 280 711 400 Q 1066.5 520 1422 588" stroke-dasharray="19 36" opacity="0.99"></path><path d="M 0 576 Q 355.5 280 711 400 Q 1066.5 520 1422 576" stroke-dasharray="48 21" opacity="0.47"></path><path d="M 0 564 Q 355.5 280 711 400 Q 1066.5 520 1422 564" stroke-dasharray="67 88" opacity="0.20"></path><path d="M 0 552 Q 355.5 280 711 400 Q 1066.5 520 1422 552" stroke-dasharray="48 42" opacity="0.48"></path><path d="M 0 540 Q 355.5 280 711 400 Q 1066.5 520 1422 540" stroke-dasharray="41 80" opacity="0.97"></path><path d="M 0 528 Q 355.5 280 711 400 Q 1066.5 520 1422 528" stroke-dasharray="30 66" opacity="0.46"></path><path d="M 0 516 Q 355.5 280 711 400 Q 1066.5 520 1422 516" stroke-dasharray="76 73" opacity="0.63"></path><path d="M 0 504 Q 355.5 280 711 400 Q 1066.5 520 1422 504" stroke-dasharray="50 61" opacity="0.26"></path><path d="M 0 492 Q 355.5 280 711 400 Q 1066.5 520 1422 492" stroke-dasharray="88 8" opacity="0.10"></path><path d="M 0 480 Q 355.5 280 711 400 Q 1066.5 520 1422 480" stroke-dasharray="28 4" opacity="0.10"></path><path d="M 0 468 Q 355.5 280 711 400 Q 1066.5 520 1422 468" stroke-dasharray="87 17" opacity="0.11"></path><path d="M 0 456 Q 355.5 280 711 400 Q 1066.5 520 1422 456" stroke-dasharray="17 5" opacity="0.60"></path><path d="M 0 444 Q 355.5 280 711 400 Q 1066.5 520 1422 444" stroke-dasharray="13 2" opacity="0.54"></path><path d="M 0 432 Q 355.5 280 711 400 Q 1066.5 520 1422 432" stroke-dasharray="51 13" opacity="0.27"></path><path d="M 0 420 Q 355.5 280 711 400 Q 1066.5 520 1422 420" stroke-dasharray="17 44" opacity="0.70"></path><path d="M 0 408 Q 355.5 280 711 400 Q 1066.5 520 1422 408" stroke-dasharray="65 35" opacity="0.55"></path><path d="M 0 396 Q 355.5 280 711 400 Q 1066.5 520 1422 396" stroke-dasharray="18 47" opacity="0.63"></path><path d="M 0 384 Q 355.5 280 711 400 Q 1066.5 520 1422 384" stroke-dasharray="72 2" opacity="0.77"></path><path d="M 0 372 Q 355.5 280 711 400 Q 1066.5 520 1422 372" stroke-dasharray="18 52" opacity="0.83"></path><path d="M 0 360 Q 355.5 280 711 400 Q 1066.5 520 1422 360" stroke-dasharray="36 41" opacity="0.51"></path><path d="M 0 348 Q 355.5 280 711 400 Q 1066.5 520 1422 348" stroke-dasharray="53 5" opacity="0.08"></path><path d="M 0 336 Q 355.5 280 711 400 Q 1066.5 520 1422 336" stroke-dasharray="22 11" opacity="0.54"></path><path d="M 0 324 Q 355.5 280 711 400 Q 1066.5 520 1422 324" stroke-dasharray="22 37" opacity="0.73"></path><path d="M 0 312 Q 355.5 280 711 400 Q 1066.5 520 1422 312" stroke-dasharray="74 45" opacity="0.98"></path><path d="M 0 300 Q 355.5 280 711 400 Q 1066.5 520 1422 300" stroke-dasharray="35 50" opacity="0.54"></path><path d="M 0 288 Q 355.5 280 711 400 Q 1066.5 520 1422 288" stroke-dasharray="76 23" opacity="0.96"></path><path d="M 0 276 Q 355.5 280 711 400 Q 1066.5 520 1422 276" stroke-dasharray="20 20" opacity="0.61"></path><path d="M 0 264 Q 355.5 280 711 400 Q 1066.5 520 1422 264" stroke-dasharray="78 23" opacity="0.71"></path><path d="M 0 252 Q 355.5 280 711 400 Q 1066.5 520 1422 252" stroke-dasharray="25 77" opacity="0.51"></path><path d="M 0 240 Q 355.5 280 711 400 Q 1066.5 520 1422 240" stroke-dasharray="72 50" opacity="0.64"></path><path d="M 0 228 Q 355.5 280 711 400 Q 1066.5 520 1422 228" stroke-dasharray="18 47" opacity="0.85"></path><path d="M 0 216 Q 355.5 280 711 400 Q 1066.5 520 1422 216" stroke-dasharray="81 65" opacity="0.36"></path><path d="M 0 204 Q 355.5 280 711 400 Q 1066.5 520 1422 204" stroke-dasharray="33 14" opacity="0.51"></path><path d="M 0 192 Q 355.5 280 711 400 Q 1066.5 520 1422 192" stroke-dasharray="13 62" opacity="0.12"></path><path d="M 0 180 Q 355.5 280 711 400 Q 1066.5 520 1422 180" stroke-dasharray="46 41" opacity="0.41"></path><path d="M 0 168 Q 355.5 280 711 400 Q 1066.5 520 1422 168" stroke-dasharray="72 35" opacity="0.29"></path><path d="M 0 156 Q 355.5 280 711 400 Q 1066.5 520 1422 156" stroke-dasharray="73 44" opacity="0.54"></path><path d="M 0 144 Q 355.5 280 711 400 Q 1066.5 520 1422 144" stroke-dasharray="69 84" opacity="0.43"></path><path d="M 0 132 Q 355.5 280 711 400 Q 1066.5 520 1422 132" stroke-dasharray="2 21" opacity="0.23"></path><path d="M 0 120 Q 355.5 280 711 400 Q 1066.5 520 1422 120" stroke-dasharray="62 32" opacity="0.08"></path><path d="M 0 108 Q 355.5 280 711 400 Q 1066.5 520 1422 108" stroke-dasharray="9 51" opacity="0.56"></path><path d="M 0 96 Q 355.5 280 711 400 Q 1066.5 520 1422 96" stroke-dasharray="57 53" opacity="0.23"></path><path d="M 0 84 Q 355.5 280 711 400 Q 1066.5 520 1422 84" stroke-dasharray="67 38" opacity="0.27"></path><path d="M 0 72 Q 355.5 280 711 400 Q 1066.5 520 1422 72" stroke-dasharray="57 44" opacity="0.94"></path><path d="M 0 60 Q 355.5 280 711 400 Q 1066.5 520 1422 60" stroke-dasharray="35 80" opacity="0.80"></path><path d="M 0 48 Q 355.5 280 711 400 Q 1066.5 520 1422 48" stroke-dasharray="88 44" opacity="0.13"></path><path d="M 0 36 Q 355.5 280 711 400 Q 1066.5 520 1422 36" stroke-dasharray="4 15" opacity="0.18"></path><path d="M 0 24 Q 355.5 280 711 400 Q 1066.5 520 1422 24" stroke-dasharray="63 88" opacity="0.64"></path></g></svg>